<?xml version="1.0" encoding="utf-8"?>
<!-- Generator: Adobe Illustrator 26.0.3, SVG Export Plug-In . SVG Version: 6.00 Build 0)  -->
<svg version="1.1" id="Calque_1" xmlns="http://www.w3.org/2000/svg" xmlns:xlink="http://www.w3.org/1999/xlink" x="0px" y="0px"
	 viewBox="0 0 312.3 383.2" style="enable-background:new 0 0 312.3 383.2;" xml:space="preserve">
<g>
	<path d="M191.1,183.2c7.6,0,15.6-1.6,24-4.8c0.8-0.4,1.2-0.8,1.2-1.6c0-0.8-0.4-1.6-1.2-2c-0.8-0.4-16.4-8.4-26.4-7.6
		c-10,0.4-19.6,5.6-20,6c-0.4,0.4-0.8,0.8-1.2,1.6c0,0.8,0,1.2,0.8,1.6C168.3,176.8,175.9,183.2,191.1,183.2L191.1,183.2z
		 M192.7,179.2c1.2-0.8,2-2.4,2-4c0-1.6-0.8-3.2-2.4-4c5.6,0.8,12.4,3.2,16.8,5.2C203.1,178.4,197.9,179.2,192.7,179.2L192.7,179.2z
		 M183.9,172c-1.2,0.8-1.6,2-1.6,3.6c0,1.2,0.4,2.4,1.6,3.2c-4.4-0.8-8-2.4-10-3.6C175.9,174,179.5,172.8,183.9,172z"/>
	<path d="M131.5,173.2c-0.4-0.4-10-5.6-20-6c-10.4-0.4-26,7.6-26.4,7.6c-0.8,0.4-1.2,1.2-1.2,2c0,0.8,0.4,1.6,1.2,1.6
		c8.4,3.2,16.8,4.8,24,4.8c15.2,0,22.4-6.8,22.8-6.8c0.4-0.4,0.8-1.2,0.8-1.6C132.3,174,131.9,173.6,131.5,173.2L131.5,173.2z
		 M107.5,171.2c-1.6,0.8-2.4,2.4-2.4,4c0,1.6,0.8,2.8,2,4c-5.2,0-10.8-1.2-16.4-2.8C95.1,174.8,101.9,172,107.5,171.2L107.5,171.2z
		 M116.3,178.8c0.8-0.8,1.6-2,1.6-3.2s-0.8-2.4-1.6-3.6c4,0.8,7.6,2.4,10.4,3.2C124.3,176.4,121.1,178,116.3,178.8z"/>
	<path d="M127.1,230.8c2,0.4,4,0.4,6,0c1.6,0,3.2-0.4,4.4,0c1.2,0.4,2.4,0.8,4,1.6c1.6,0.8,3.6,2,5.6,2.4h1.6c2.4,0,4.8-0.8,7.2-1.6
		c2-0.8,3.6-1.2,5.2-1.6h0.8h4c1.2,0,2,0.4,3.2,0.4c0.8,0,2,0,2.8-0.4c3.6-0.8,6-3.6,6.8-7.2c0.8-3.6-0.8-7.2-3.2-9.6
		c-0.8-0.8-2-0.4-2.8,0.4c-0.8,0.8-0.4,2,0.4,2.8c1.6,1.2,2.4,3.6,2,5.6c-0.4,2-2,3.6-4,4c-1.6,0.4-3.2,0-4.8,0c-2-0.4-4-0.4-5.6,0
		c0,0-0.4,0-0.4,0.4c-2,0.4-3.6,0.8-5.2,1.6c-2.4,0.8-4.4,1.6-6.4,1.6c-1.2-0.4-2.8-0.8-4-2c-1.6-0.8-3.2-1.6-5.2-2
		c-2-0.4-4-0.4-6,0c-1.6,0-3.2,0.4-4.8,0c-2-0.4-3.6-2.4-4-4c-0.4-2,0.4-4.4,2-5.6c0.8-0.8,1.2-2,0.4-2.8s-2-1.2-2.8-0.4
		c-2.8,2-4,6-3.2,9.6C120.7,227.2,123.5,230,127.1,230.8L127.1,230.8z"/>
	<path d="M194.7,268.8c-12.4-3.2-19.6-3.6-28.4-4c-2.4,0-4.8-0.4-7.6-0.4c-3.6-0.4-7.6-0.4-11.6-0.4c-4.8,0-10,0.4-15.6,1.2
		c-4,0.4-7.6,1.2-11.6,1.6c-4.4,0.8-8.8,1.6-13.2,2c-1.6,0.4-2.8,1.2-3.2,2.8c-0.4,1.6,0.4,3.2,2,4c16.8,9.2,30,13.2,43.2,13.2
		c15.2,0,29.6-5.2,46.8-13.2c1.6-0.8,2.4-2,2-3.6C197.1,270.4,196.3,269.2,194.7,268.8L194.7,268.8z M120.3,270.8
		c3.6-0.8,7.6-1.2,11.2-1.6c5.6-0.8,10.4-1.2,15.2-1.2c4,0,7.6,0.4,11.2,0.4c2.8,0.4,5.2,0.4,7.6,0.4c7.6,0.4,13.2,0.8,21.6,2.4
		c-10.8,1.2-46,4.4-74,0.8C115.5,271.6,117.9,271.2,120.3,270.8L120.3,270.8z M148.3,284.8c-10.4,0-20.8-2.8-33.6-8.8
		c9.2,1.2,19.2,1.6,28.8,1.6c18,0,34.8-1.6,42.8-2.4C172.7,281.2,160.7,284.8,148.3,284.8L148.3,284.8z M193.1,272.4
		C193.1,272.4,192.7,272.4,193.1,272.4z"/>
	<path d="M192.3,223.2c-0.8-0.8-2-0.8-2.8,0.4c-0.8,0.8-0.8,2,0.4,2.8c9.2,8,16.8,18.4,22,29.6c0.4,0.8,1.2,1.2,2,1.2h0.8
		c1.2-0.4,1.6-1.6,1.2-2.8C210.3,242.4,202.3,231.6,192.3,223.2L192.3,223.2z"/>
	<path d="M107.1,226c0.8-0.8,0.8-2,0.4-2.8c-0.8-0.8-2-0.8-2.8-0.4c-10,8.4-17.6,19.2-23.2,31.2c-0.4,1.2,0,2,1.2,2.8h0.8
		c0.8,0,1.6-0.4,2-1.2C89.9,244.4,97.5,234,107.1,226L107.1,226z"/>
	<path d="M105.9,255.2c0,0.4,0.4,0.4,0.8,0.4h0.4c0.4,0,7.6-3.2,9.2-8c0-0.4,0-1.2-0.4-1.2c-0.4-0.4-1.2,0-1.2,0.4
		c-1.6,4-8,6.8-8,6.8C105.9,254.4,105.9,254.8,105.9,255.2L105.9,255.2z"/>
	<path d="M117.9,256h0.4c0.4,0,7.6-3.2,9.2-8c0-0.4,0-1.2-0.4-1.2c-0.4-0.4-1.2,0-1.2,0.4c-1.6,4-8,6.8-8,6.8
		c-0.4,0.4-0.8,0.8-0.4,1.2C117.1,255.6,117.5,256,117.9,256L117.9,256z"/>
	<path d="M134.7,247.2c-1.6,4-8,6.8-8,6.8c-0.4,0.4-0.8,0.8-0.4,1.2c0,0.4,0.4,0.4,0.8,0.4h0.4c0.4,0,7.6-3.2,9.2-8
		c0-0.4,0-1.2-0.4-1.2C135.5,246.4,135.1,246.8,134.7,247.2L134.7,247.2z"/>
	<path d="M191.1,256h0.4c0.4,0,0.8-0.4,0.8-0.4c0.4-0.4,0-1.2-0.4-1.2c0,0-6.8-3.2-8-6.8c0-0.4-0.8-0.8-1.2-0.4
		c-0.4,0-0.8,0.8-0.4,1.2C183.9,252.4,191.1,255.6,191.1,256L191.1,256z"/>
	<path d="M173.1,247.2c0-0.4-0.8-0.8-1.2-0.4c-0.4,0-0.8,0.8-0.4,1.2c1.6,4.8,8.8,8,9.2,8h0.4c0.4,0,0.8-0.4,0.8-0.4
		c0.4-0.4,0-1.2-0.4-1.2C181.1,254,174.3,251.2,173.1,247.2L173.1,247.2z"/>
	<path d="M163.9,247.2c0-0.4-0.8-0.8-1.2-0.4c-0.4,0-0.8,0.8-0.4,1.2c1.6,4.8,8.8,8,9.2,8h0.4c0.4,0,0.8-0.4,0.8-0.4
		c0.4-0.4,0-1.2-0.4-1.2C171.9,254,165.5,251.2,163.9,247.2L163.9,247.2z"/>
	<path d="M146.3,314.4c-0.4,0-0.8,0.4-0.8,0.8v8.8c0,0.4,0.4,0.8,0.8,0.8c0.4,0,0.8-0.4,0.8-0.8v-8.4
		C147.5,314.8,146.7,314.4,146.3,314.4L146.3,314.4z"/>
	<path d="M151.1,314.4c-0.4,0-0.8,0.4-0.8,0.8v8.8c0,0.4,0.4,0.8,0.8,0.8c0.4,0,0.8-0.4,0.8-0.8v-8.4
		C151.9,314.8,151.5,314.4,151.1,314.4L151.1,314.4z"/>
	<path d="M156.7,314.4c-0.4,0-0.8,0.4-0.8,0.8v8.8c0,0.4,0.4,0.8,0.8,0.8c0.4,0,0.8-0.4,0.8-0.8v-8.4
		C157.9,314.8,157.1,314.4,156.7,314.4L156.7,314.4z"/>
	<path d="M164.3,138.4l1.6,3.6c17.2-6.8,36-8.8,54-5.6l0.8-4C201.5,128.8,182.3,131.2,164.3,138.4L164.3,138.4z"/>
	<path d="M80.7,132.4l0.8,4c18.4-3.2,36.8-1.2,54,5.6l1.6-3.6C119.1,131.2,99.5,128.8,80.7,132.4L80.7,132.4z"/>
	<path d="M308.7,291.2c-10.8-3.6-51.2-10.8-65.2-11.6l-1.6-2c2.4-4,4.4-7.6,5.6-10c0.4,0,0.8,0,1.2-0.4
		c13.2-6.8,23.6-17.6,30.4-30.8c6.8-13.2,8.4-28.4,6-42.8c-0.8-3.6-2-8.4-5.6-11.6c-3.2-2.8-7.6-3.6-12-3.2c-2,0.4-3.6,0.8-5.2,1.2
		c2.8-4.4,5.2-13.2,5.6-30c0-6,0.4-13.6,1.2-22c1.2-17.2,2.4-38.4,0.8-56c-2.8-28-19.6-52-44-63.6c-12-5.6-24.4-8.4-37.2-8.4
		l-34,0.4l-34-0.4h-0.4c-12.4,0-24.8,2.8-36.4,8.4C59.5,20,42.7,44,39.8,72c-1.6,18-0.8,39.6,0.4,57.2c0.4,7.6,0.8,14.8,0.8,20.4
		c0,14.4,1.6,24,4,29.6c-1.2-0.4-2.4-0.4-3.6-0.8c-4.8-0.4-9.2,0.4-12,3.2c-3.6,3.2-4.8,8-5.6,11.6c-2.8,14.4-0.4,29.6,6,42.8
		c6,12.4,14.8,21.2,27.6,28c1.2,2.4,4.4,8,8.8,15.2C51,280.4,13,286.8,2.7,290.4c-2,0.8-3.2,3.2-2.4,5.2c0.4,1.6,2,2.8,3.6,2.8
		c0.4,0,0.8,0,1.2-0.4c8-2.8,36.8-8,54-10l-17.2,20.8c-0.8,1.2-1.2,2.8-0.8,4c10,23.2,43.6,66.8,45.2,68.8c0.8,1.2,2,1.6,3.2,1.6
		c0.4,0,1.2,0,1.6-0.4c0.8-0.4,19.2-9.6,55.6-43.6h16.8c36,34,54.8,43.2,55.2,43.6c0.4,0.4,1.2,0.4,1.6,0.4c1.2,0,2.4-0.4,3.2-1.6
		c1.6-2,35.2-45.6,45.2-68.8c0.4-1.2,0.4-2.8-0.4-4L251.9,288c16.8,2,47.2,7.2,55.6,10.4c0.4,0,0.8,0.4,1.2,0.4
		c1.6,0,3.2-1.2,3.6-2.8C311.9,294,310.7,291.6,308.7,291.2L308.7,291.2z M234.3,275.6c0,0.4-0.4,0.4-0.4,0.8
		c-8,12.4-19.2,27.6-32.4,38.8c-9.2,6.4-20.8,12.4-35.2,16.4h-27.2h-1.2c-9.6-2-17.6-5.2-24.4-9.2c-16.4-10.8-30.4-28.8-40.4-43.6
		c0-0.4-0.4-0.4-0.4-0.8c-4.8-7.2-8-13.6-10.4-18c-4.8-10.4-8-58-8.8-79.2c0-0.4,0-2.8,0.4-6.8l10.4-0.8c2,12,10.4,37.6,42,37.6h0.4
		c29.6-0.4,38-23.6,40-37.6c0.4-1.2,0.4-2.4,0.4-4h9.2v3.2c2,11.6,10,38.4,42.4,38.4h0.4c29.6-0.4,38-23.6,40-37.6l12.4,0.8
		c0.4,4,0.4,6.8,0.4,6.8c-0.8,21.2-4,68.8-8.8,79.2C241.1,263.6,238.3,269.2,234.3,275.6L234.3,275.6z M239.1,166
		c-1.2-5.2-4.4-10-8.8-12.8c-6.4-4-16.8-8.8-29.6-8.8c-12.8,0-24.4,4-35.6,12.4c-0.8,0.4-1.6,0.8-2.4,0.8h-18c-0.8,0-1.2-0.4-2-0.8
		c-1.2-1.6-2.8-2.8-4.4-3.6c-6.4-4-16.8-8.8-29.6-8.8c-13.2,0-26.4,4.8-39.2,14.8c-2.4,1.6-4,4-4.8,6.8l-10,0.8
		c0.8-9.6,2-22.4,4.4-29.2c1.2-3.2,2-6.8,3.2-10c3.2-9.6,6.8-19.6,7.6-30.4c1.6-18.4,10.8-52,19.6-52c4,0,10.4,4.4,17.2,8.8
		c10,6.8,22.4,15.2,36,15.2h2.4c8.4,0,14.4,5.2,18.4,9.2c6.8,7.6,30.4,10.4,70.8,8.4c2.4,4,6,20.8,8,30.8c1.6,8,3.2,15.6,4.8,20.4
		c2.4,7.2,3.6,19.6,4.4,29.6L239.1,166z M166.3,165.6c11.2-8.8,22.8-13.2,34-13.2c10.8,0,20,4,25.2,7.6c4,2.4,6.4,7.2,5.6,11.6
		c-2,11.6-8.4,30.8-32.4,30.8h-0.4c-25.2,0-32.4-20-34.4-31.6C163.9,168.8,164.7,166.8,166.3,165.6L166.3,165.6z M139.1,171.6
		c-2,11.6-8.4,30.8-32.4,30.8h-0.4c-25.2,0-32.4-20-34.4-31.6c-0.4-2,0.4-4,2-5.2c11.2-8.8,22.8-13.2,34-13.2c10.8,0,20,4,25.2,7.6
		C137.9,162.4,139.9,167.2,139.1,171.6L139.1,171.6z M268.7,186.8c2.4-0.4,4.8,0,6,1.2c2,1.6,2.4,4.4,3.2,7.2
		c2.4,12.8,0.4,26-5.2,37.6c-4.4,9.2-11.2,17.2-19.6,22.8c4-16.4,6-48.4,6.8-66c0.4,0,0.8,0,1.2-0.4
		C263.1,188.4,265.9,187.2,268.7,186.8L268.7,186.8z M35.5,232.8c-5.6-11.6-7.6-25.2-5.2-37.6c0.4-2.4,1.2-5.6,3.2-7.2
		c1.2-1.2,3.6-1.6,6-1.2c2.4,0.4,4.4,1.2,6.8,2c0.8,16.8,2.8,46.8,6.4,64C45.1,247.6,39.9,241.2,35.5,232.8L35.5,232.8z M89.1,374.4
		c-7.2-9.6-32-42.4-40.8-62L68.7,288c4.8,10,17.2,29.2,41.6,42c7.6,4.8,15.2,8,23.6,9.2C110.3,361.2,95.1,370.8,89.1,374.4z
		 M218.3,374.4c-6-3.6-21.2-13.6-45.2-35.6c11.6-2,22.4-8.4,32-16.4c18.4-12.8,28.4-28.4,33.2-36.8c0.4,0.4,0.4,0.8,0.8,0.8
		l20.4,25.6C250.3,331.6,225.5,364.8,218.3,374.4L218.3,374.4z"/>
	<path d="M269.1,215.6c0.4,3.6-0.8,7.2-3.2,9.6c-0.8,0.8-0.8,2,0,2.8c0.4,0.4,0.8,0.4,1.2,0.4c0.4,0,1.2-0.4,1.6-0.8
		c3.2-3.2,4.8-8,4.4-12.8c-0.4-4.8-3.2-8.8-6.8-11.6c-0.8-0.8-2-0.4-2.8,0.4c-0.8,0.8-0.4,2,0.4,2.8
		C266.7,209.2,268.7,212.4,269.1,215.6L269.1,215.6z"/>
	<path d="M39.9,216c0-3.6,1.2-6.8,3.6-9.2c0.8-0.8,0.8-2,0-2.8s-2-0.8-2.8,0c-3.6,3.2-5.2,8-5.2,12.4c0.4,4.8,2.8,9.2,6.4,12
		c0.4,0.4,0.8,0.4,1.2,0.4c0.8,0,1.2-0.4,1.6-0.8c0.8-0.8,0.4-2-0.4-2.8C41.9,222.8,39.9,219.2,39.9,216L39.9,216z"/>
</g>
</svg>
