<svg width="169" height="135" viewBox="0 0 169 135" fill="none" xmlns="http://www.w3.org/2000/svg">
<path d="M71.9915 125.98L71.5791 125.923C70.2631 125.742 69.0448 125.128 68.1159 124.178C67.19 123.232 66.6042 122.005 66.4497 120.69C66.4212 120.458 66.406 120.224 66.4043 119.991C66.13 119.532 65.9168 119.037 65.7719 118.518L68.3056 117.811L65.7719 118.518C65.5085 117.575 65.4784 116.583 65.6843 115.625C65.8901 114.668 66.3257 113.775 66.9536 113.024C67.5814 112.273 68.3826 111.685 69.2881 111.313L69.2926 111.311C71.9951 110.205 74.2497 108.551 76.0528 106.338L57.6508 101.678L57.5609 101.665L57.3857 101.614C51.3391 99.8553 45.8171 97.5135 40.9526 94.616C36.3185 97.204 30.9483 98.2111 25.6636 97.4548L25.6573 97.4538C11.8047 95.4368 2.52736 81.9417 4.60812 67.6385C4.6083 67.6372 4.60848 67.636 4.60866 67.6348L7.21192 68.0138C7.84732 63.5604 9.68116 59.3634 12.5173 55.8718L71.9915 125.98ZM71.9915 125.98L72.0314 125.973M71.9915 125.98L72.0314 125.973M165.244 47.7182C167.071 35.1582 158.676 23.3534 146.319 21.5541L146.318 21.5539C143.037 21.0781 139.699 21.3542 136.553 22.3523C131.04 17.6529 124.458 14.3616 117.373 12.7739L117.369 12.773C116.942 12.6779 116.006 12.4745 107.327 11.2108C102.453 10.5011 96.5862 9.668 91.9206 9.00982C89.5874 8.68067 87.5537 8.39514 86.0937 8.19048L84.3681 7.94882L83.8925 7.88226L83.7635 7.86417L83.7283 7.85922C83.7224 7.85839 83.7212 7.85822 83.723 7.85849L83.7059 7.85599L83.6887 7.85373C71.754 6.27597 59.8538 8.11303 49.2839 13.2084C36.5874 19.3007 27.5307 29.3502 23.2231 36.8383L23.2042 36.871L23.1863 36.9043L23.1573 36.9583L23.1572 36.9585L23.1282 37.0125L23.1165 37.0342L23.1052 37.0561C21.5984 39.99 20.3688 43.4885 19.5346 47.115C16.0231 48.7648 12.9238 51.19 10.4741 54.2147L162.64 47.3423M165.244 47.7182C165.243 47.7192 165.243 47.7203 165.243 47.7213L162.64 47.3423M165.244 47.7182C165.244 47.7157 165.244 47.7131 165.245 47.7106L162.64 47.3423M165.244 47.7182C164.753 51.1784 163.495 54.485 161.56 57.3955C159.927 59.852 157.848 61.9737 155.436 63.653M162.64 47.3423C162.205 50.4163 161.088 53.3539 159.369 55.9393C157.651 58.5248 155.375 60.6924 152.71 62.283M155.436 63.653C155.409 63.1251 155.375 62.5973 155.332 62.0698L152.71 62.283M155.436 63.653C155.726 69.4744 155.013 75.3065 153.322 80.8929C151.282 87.66 147.716 93.8683 142.897 99.0389C132.471 110.232 115.929 112.009 105.88 111.963C95.9144 127.158 79.0975 126.87 72.0314 125.973M155.436 63.653C154.988 63.9649 154.528 64.2615 154.058 64.5421L152.71 62.283M152.71 62.283L72.0314 125.973" fill="#FFFB00" stroke="white" stroke-width="5.26143"/>
<path d="M86.1432 94.9651C86.1432 94.9651 86.3524 114.316 68.966 119.248C68.966 119.248 94.9654 126.169 103.709 101.155" fill="black"/>
<path d="M26.8294 70.2572C23.7645 62.8648 25.8761 51.0676 29.4618 44.0477C33.4425 37.0904 41.7108 28.2443 52.6193 22.972C62.1187 18.3807 72.7779 16.8004 83.22 18.1784C83.22 18.1784 113.269 22.3699 115.536 22.884C146.294 29.8603 158.301 71.7518 136.779 94.9983C127.476 105.044 110.855 106.88 98.212 105.749C96.4718 105.593 94.747 105.297 93.0544 104.863L58.7457 96.1291C31.3487 88.1473 26.8294 70.2572 26.8294 70.2572Z" fill="black"/>
<path d="M95.6296 101.103C94.5107 100.941 93.4013 100.719 92.3059 100.438L57.9972 91.7037C44.0617 87.6433 36.247 80.948 32.1479 76.045C27.7116 70.7355 26.5506 66.3355 26.5389 66.2923L26.5272 66.2492L26.5104 66.2053C23.5698 59.1082 25.5248 47.5913 29.1163 40.5489C32.8504 34.0299 40.8169 25.1528 51.9872 19.745C61.2675 15.2617 71.7241 13.6234 82.2296 15.008C82.3581 15.0267 95.6873 16.8873 105.151 18.2653C112.057 19.2709 114.039 19.6036 114.488 19.7052C128.441 22.869 139.503 33.6853 144.071 48.6262C146.275 55.7588 146.727 63.3262 145.387 70.6797C144.02 78.1888 140.558 85.1552 135.405 90.7643C131.245 95.26 125.283 98.4129 117.701 100.146C109.919 101.92 102.347 101.76 97.3645 101.315C96.7887 101.257 96.2043 101.187 95.6296 101.103Z" fill="white"/>
<path d="M105.067 18.9007C111.945 19.9022 113.91 20.2298 114.348 20.3299C121.37 21.9417 127.784 25.542 132.833 30.7061C137.665 35.6147 141.344 41.884 143.463 48.8227C145.636 55.853 146.083 63.3119 144.764 70.5604C143.417 77.9487 140.008 84.8025 134.937 90.3204C130.866 94.7177 125.018 97.8095 117.559 99.5111C109.857 101.268 102.354 101.111 97.4173 100.669C96.8533 100.618 96.2815 100.551 95.7169 100.468C94.6227 100.308 93.5375 100.091 92.4655 99.8188L58.1745 91.087C52.0985 89.3136 46.6874 86.8986 42.0889 83.905C38.5749 81.6467 35.41 78.8814 32.6953 75.6972C28.326 70.4933 27.1762 66.1753 27.1641 66.1346L27.141 66.0458L27.1075 65.958C25.7872 62.7759 25.3909 58.3033 26.0176 53.363C26.5767 48.8871 27.912 44.3298 29.6819 40.8541C33.3728 34.4194 41.2406 25.6549 52.2711 20.3227C61.4305 15.8917 71.7531 14.2727 82.1368 15.6448C82.2704 15.6643 95.5971 17.5244 105.064 18.9029L105.067 18.9007ZM105.248 17.6343C95.6709 16.2397 82.319 14.3759 82.319 14.3759C71.8769 12.9979 61.2177 14.5782 51.718 19.1721C40.8094 24.4444 32.5411 33.2905 28.5731 40.2496C24.9776 47.2655 22.8758 59.0667 25.941 66.4566C25.941 66.4566 30.4604 84.3466 57.8573 92.3285L92.1656 101.065C93.2827 101.35 94.4139 101.576 95.5545 101.743C96.1426 101.828 96.733 101.898 97.3258 101.951C109.971 103.083 126.59 101.248 135.893 91.2005C157.415 67.9541 145.408 26.0625 114.651 19.0837C113.903 18.9152 110.052 18.3338 105.263 17.6365L105.248 17.6343Z" fill="black"/>
<path d="M85.3126 91.9553C85.3126 91.9553 85.5239 111.309 68.1351 116.241C68.1351 116.241 94.1345 123.162 102.878 98.1455" fill="white"/>
<path d="M85.3126 91.9553C85.3126 91.9553 85.5239 111.309 68.1351 116.241C68.1351 116.241 94.1345 123.162 102.878 98.1455" stroke="black" stroke-width="1.40305" stroke-miterlimit="10"/>
<path d="M30.8091 89.4109C30.8091 89.4109 18.1919 75.8733 19.1934 58.1602" stroke="black" stroke-width="1.40305" stroke-miterlimit="10"/>
<path d="M21.8922 82.7203C21.8922 82.7203 16.1069 77.6781 15.77 70.3228" stroke="black" stroke-width="1.40305" stroke-miterlimit="10"/>
<path d="M141.178 31.3071C141.178 31.3071 147.798 38.0928 150.118 52.9837" stroke="black" stroke-width="1.40305" stroke-miterlimit="10"/>
<path d="M148.552 32.3809C148.552 32.3809 152.66 36.6062 154.093 45.8338" stroke="black" stroke-width="1.44514" stroke-miterlimit="10"/>
</svg>
