<svg width="551" height="422" viewBox="0 0 551 422" fill="none" xmlns="http://www.w3.org/2000/svg">
<path d="M265.37 413.548L264.183 413.557C259.952 413.59 255.83 412.214 252.466 409.647C249.113 407.088 246.703 403.489 245.613 399.414C245.377 398.554 245.202 397.68 245.086 396.799C243.888 395.393 242.895 393.816 242.142 392.115C240.878 389.262 240.327 386.144 240.536 383.031C240.746 379.917 241.71 376.901 243.345 374.243C244.98 371.585 247.238 369.364 249.923 367.773L249.934 367.766C259.549 362.093 267.011 354.439 272.285 344.783L204.72 337.77H204.435L203.919 337.698C182.198 334.67 162.042 329.338 143.93 321.742C129.551 333.015 111.782 339.206 93.42 339.25L93.4108 339.25H93.4017C46.0954 339.25 8.36159 298.612 8.35607 249.564C8.30955 232.703 12.845 216.146 21.4777 201.663C28.3411 190.112 37.7705 180.319 49.0143 173.032C50.0131 160.093 52.4713 147.392 56.1796 136.561L56.2023 136.495L56.2263 136.429L56.2985 136.23L56.2987 136.23L56.3709 136.031L56.4078 135.93L56.4475 135.83C67.3194 108.406 93.0349 69.8929 133.028 42.9999C166.293 20.544 205.676 8.45352 246.878 7.91137L246.927 7.91072H246.977L247.038 7.91042L247.126 7.90999L247.575 7.90759L249.231 7.89842C250.654 7.89052 252.696 7.87923 255.237 7.86569C260.319 7.83859 267.398 7.80247 275.52 7.76635C291.762 7.69411 312.186 7.62183 329.161 7.62183C359.417 7.62183 362.644 7.85184 364.077 7.95847L364.089 7.95937C389.082 9.85945 413.195 17.9007 434.299 31.3384C444.53 26.2242 455.828 23.544 467.308 23.5377L467.312 23.5377C509.444 23.5377 543.288 58.8827 543.296 101.817M265.37 413.548L535.796 101.833M265.37 413.548L265.496 413.506M265.37 413.548L265.496 413.506M543.296 101.817C543.296 101.822 543.296 101.828 543.296 101.833H535.796M543.296 101.817C543.296 101.812 543.296 101.807 543.296 101.802L535.796 101.833M543.296 101.817C543.343 113.634 540.744 125.311 535.689 135.993C531.3 145.268 525.156 153.587 517.612 160.498M535.796 101.833C535.841 112.535 533.487 123.111 528.91 132.784C524.332 142.458 517.646 150.982 509.343 157.732M517.612 160.498C517.312 159.013 516.992 157.532 516.653 156.054L509.343 157.732M517.612 160.498C521.618 180.308 522.134 200.678 519.124 220.688C515.561 244.545 506.568 267.265 492.839 287.097C462.979 330.248 407.346 344.325 373.204 349.031C347.229 405.85 289.871 413.101 265.496 413.506M517.612 160.498C516.465 161.549 515.285 162.568 514.074 163.552L509.343 157.732M509.343 157.732L265.496 413.506" fill="#FFFB00" stroke="white" stroke-width="15"/>
<path d="M298.501 302.285C298.501 302.285 308.826 368.192 251.967 393.655C251.967 393.655 344.096 404.349 361.498 314.676" fill="black"/>
<path d="M83.8908 247.462C69.7637 223.766 71.1071 182.474 79.852 156.746C89.9754 131.035 113.787 96.7519 148.38 73.3483C178.504 52.9673 214.081 42.2818 250.387 41.7957C250.387 41.7957 354.974 41.1682 362.964 41.7957C471.354 50.3158 533.121 187.256 471.248 277.246C444.504 316.135 388.716 330.656 345.027 333.078C339.013 333.411 332.982 333.257 326.992 332.618L205.617 319.864C108.194 306.245 83.8908 247.462 83.8908 247.462Z" fill="black"/>
<path d="M333.911 318.512C330.013 318.513 326.118 318.306 322.242 317.893L200.867 305.14C151.312 298.211 121.328 279.253 104.91 264.563C87.1389 248.655 80.9928 234.222 80.9314 234.08L80.8699 233.939L80.7909 233.797C67.2345 211.048 68.1828 170.79 76.9365 144.982C86.4365 120.889 109.203 86.6496 144.622 62.6538C174.052 42.7501 208.909 31.9674 245.434 31.4725C245.882 31.4725 292.276 31.1985 325.245 31.1985C349.302 31.1985 356.229 31.3487 357.81 31.4725C406.978 35.3348 450.088 66.737 473.092 115.436C484.154 138.672 489.453 164.262 488.536 190.013C487.602 216.308 479.252 241.792 464.461 263.485C452.502 280.888 433.731 294.605 408.725 304.282C383.061 314.199 357.151 317.416 339.934 318.371C337.941 318.459 335.912 318.512 333.911 318.512Z" fill="white"/>
<path d="M325.271 33.4081C349.232 33.4081 356.098 33.5495 357.643 33.6732C382.399 35.6834 406.067 44.7792 425.855 59.8875C444.776 74.2319 460.44 93.7909 471.116 116.408C482.021 139.311 487.248 164.534 486.35 189.916C485.425 215.788 477.202 240.861 462.643 262.204C450.94 279.226 432.528 292.678 407.926 302.188C382.526 312.007 356.853 315.198 339.793 316.143C337.844 316.249 335.86 316.302 333.893 316.302C330.081 316.299 326.271 316.098 322.479 315.701L201.165 302.948C179.558 299.916 159.899 294.366 142.725 286.438C129.617 280.48 117.447 272.619 106.604 263.105C89.1145 247.523 83.0475 233.364 82.986 233.232L82.8631 232.94L82.7051 232.657C76.6205 222.458 73.047 207.398 72.731 190.234C72.4149 174.687 74.7065 158.478 79.0175 145.742C88.4121 121.958 110.898 88.1521 145.877 64.4833C174.922 44.8182 209.331 34.1682 245.434 33.6909C245.9 33.6909 292.284 33.4169 325.262 33.4169L325.271 33.4081ZM325.262 28.9978C291.898 28.9978 245.425 29.2718 245.425 29.2718C209.12 29.7579 173.543 40.4433 143.419 60.8331C108.826 84.2368 85.0142 118.52 74.9347 144.231C66.1547 169.95 64.8465 211.251 78.9736 234.938C78.9736 234.938 103.277 293.721 200.7 307.34L322.075 320.103C326.027 320.519 329.998 320.729 333.972 320.73C336.021 320.73 338.069 320.674 340.118 320.562C383.816 318.141 439.596 303.628 466.34 264.731C528.213 174.74 466.445 37.8007 358.056 29.2718C355.422 29.0685 341.997 28.9978 325.315 28.9978H325.262Z" fill="black"/>
<path d="M294.172 292.43C294.172 292.43 304.506 358.346 247.638 383.809C247.638 383.809 339.767 394.503 357.169 304.822" fill="white"/>
<path d="M294.172 292.43C294.172 292.43 304.506 358.346 247.638 383.809C247.638 383.809 339.767 394.503 357.169 304.822" stroke="black" stroke-width="5" stroke-miterlimit="10"/>
<path d="M98 314C98 314 49.4782 281.149 39 224" stroke="black" stroke-width="10" stroke-miterlimit="10"/>
<path d="M460 48C460 48 497.153 71.8066 519 131" stroke="black" stroke-width="10" stroke-miterlimit="10"/>
</svg>
