<svg width="150" height="92" viewBox="0 0 150 92" fill="none" xmlns="http://www.w3.org/2000/svg">
<path d="M25.5442 24.9399C25.5575 25.3935 25.4392 25.8412 25.2036 26.229C24.968 26.6168 24.6252 26.928 24.2167 27.125C23.8694 27.2912 23.4897 27.3786 23.1047 27.3809C22.1587 27.3697 21.2136 27.4418 20.2802 27.5965C20.3626 28.8539 20.4047 30.1103 20.4066 31.3658C20.3779 32.0788 20.1796 32.4497 19.809 32.4785C19.5216 32.4497 19.3808 31.8661 19.3808 30.7218V27.7661C16.0133 28.5328 13.5738 29.8899 12.0624 31.8373C11.3288 32.7644 10.9244 33.9095 10.9131 35.092C10.9195 35.4126 10.9777 35.7301 11.0855 36.0322C12.37 36.2623 13.6743 36.3635 14.9789 36.334C17.176 36.334 20.5283 35.7485 25.0356 34.5773C26.4914 34.1787 27.5613 33.9074 28.2451 33.7637L29.1071 33.548C29.749 33.372 30.41 33.2754 31.0754 33.2605C31.665 33.228 32.2512 33.3689 32.7617 33.6657C33.2723 33.9625 33.6849 34.4024 33.9487 34.931C33.9705 34.9783 33.9996 35.022 34.0349 35.0604C34.5924 35.0953 35.1289 35.2864 35.5831 35.6117C36.0373 35.9371 36.3909 36.3836 36.6037 36.9005C36.7922 37.3027 36.8903 37.7414 36.891 38.1856C36.9032 38.7383 36.7615 39.2834 36.482 39.7601C36.2024 40.2369 35.7959 40.6265 35.3078 40.8854C34.8594 41.1308 34.3636 41.2769 33.8539 41.3138C27.6053 42.4274 22.1689 42.9842 17.5448 42.9842C12.98 42.9555 9.74172 41.9415 7.82999 39.9423C4.9758 38.5719 3.53434 36.3733 3.50561 33.3468C3.53434 30.4352 5.03231 27.723 7.99952 25.2101L7.22946 24.5661C4.77562 23.3681 3.14739 21.5693 2.34477 19.1695C2.0317 18.29 1.8723 17.3631 1.87354 16.4295C1.87354 13.0598 3.25754 10.247 6.02553 7.99095C8.59518 5.89108 11.8255 4.77053 15.1427 4.8283C16.9126 4.85705 18.2966 5.51354 19.2946 6.79777C21.5473 7.42647 22.8595 9.26847 23.2311 12.3238C23.2892 12.8498 23.318 13.3787 23.3173 13.908C23.3306 14.3616 23.2124 14.8093 22.9768 15.1971C22.7412 15.5849 22.3984 15.8961 21.9898 16.0931C21.6421 16.258 21.2627 16.3453 20.8779 16.349C20.4073 16.37 19.9416 16.2459 19.5438 15.9934C19.146 15.7409 18.8354 15.3723 18.6539 14.9373C18.6026 14.8117 18.5595 14.6831 18.5246 14.552H18.3091C17.8599 14.5754 17.4143 14.4606 17.0321 14.2232C16.65 13.9857 16.3496 13.637 16.1713 13.2237C16.0075 12.8895 15.9192 12.5234 15.9127 12.1513V11.8638C15.8887 11.7804 15.8743 11.6945 15.8696 11.6079C13.3794 12.0372 11.5395 13.1509 10.3499 14.9488C9.69341 15.8932 9.33509 17.0129 9.32126 18.1632C9.33264 18.9628 9.55465 19.7453 9.96489 20.4317C11.2567 20.8126 12.5977 21.0006 13.9445 20.9894C14.4578 20.9894 16.0133 20.9032 18.6108 20.7307C19.0389 20.7048 19.4498 20.6904 19.8521 20.6904C21.5914 20.7192 22.6181 21.3182 22.9323 22.4874C24.5586 22.8382 25.4292 23.6557 25.5442 24.9399ZM11.8469 6.78052C11.8182 6.58213 11.6458 6.46713 11.3326 6.43838C9.67755 6.43838 8.0225 7.16675 6.36746 8.62348C5.15383 9.71696 4.21474 11.0812 3.62629 12.6055V12.6487C3.62629 12.9908 3.71249 13.1633 3.88201 13.1633C4.14061 13.1633 4.39634 12.9621 4.65494 12.5624C4.67002 12.5005 4.69846 12.4426 4.73827 12.3928C5.53706 10.4492 7.24957 8.90716 9.87581 7.76669C10.3485 7.56297 10.8342 7.39104 11.3297 7.25204C11.6458 7.11116 11.8182 6.95015 11.8469 6.78052ZM7.99377 18.1632C7.99377 15.3935 9.30689 13.2227 11.9331 11.651C13.1082 10.9642 14.3999 10.5002 15.7432 10.2824C15.5708 9.88279 15.3697 9.66716 15.1427 9.63841C12.4877 9.63841 10.3193 10.4808 8.6374 12.1656C7.38079 13.3924 6.75249 14.806 6.75249 16.4065C6.74742 16.9988 6.87125 17.5852 7.11536 18.1249C7.35948 18.6646 7.71805 19.1446 8.16617 19.5318C8.06561 19.082 8.00789 18.6238 7.99377 18.1632V18.1632ZM19.4297 25.6673C16.1732 25.9261 13.434 26.8691 11.2119 28.4964C9.35574 29.9225 8.41328 31.5354 8.38455 33.3353C8.37652 33.7727 8.48319 34.2047 8.69392 34.5881C8.90464 34.9714 9.21208 35.2929 9.58561 35.5204V35.092C9.61242 33.2059 10.4256 31.5067 12.0251 29.9944C13.8506 28.3095 16.3188 27.1394 19.4297 26.4838V25.6673ZM34.3711 36.4606C34.3698 37.0155 34.2126 37.5588 33.9174 38.0286C33.6222 38.4984 33.2009 38.8756 32.7017 39.1172C32.2704 39.3661 31.7877 39.5127 31.2909 39.5456C25.0423 40.6592 19.6059 41.216 14.9817 41.216C14.4416 41.216 13.7002 41.1873 12.7578 41.1298C14.3307 41.4823 15.9386 41.6549 17.5505 41.6444C22.2609 41.6444 27.6111 41.102 33.601 40.0171C33.674 40.0089 33.746 39.9944 33.8165 39.974C34.2841 39.9459 34.7252 39.7472 35.0562 39.4155C35.3872 39.0838 35.5851 38.6421 35.6124 38.1741C35.6293 37.8246 35.5349 37.4787 35.3428 37.1863C35.1507 36.8938 34.8708 36.6699 34.5435 36.5468C34.4807 36.5303 34.422 36.501 34.3711 36.4606V36.4606ZM20.2917 8.75286C20.5855 9.8524 20.7257 10.9874 20.7083 12.1254C20.7051 12.497 20.6187 12.8631 20.4556 13.1969C20.2925 13.5307 20.0569 13.8238 19.7659 14.0546C19.807 14.264 19.9045 14.4582 20.0478 14.6163C20.1911 14.7743 20.3748 14.8903 20.579 14.9517C20.6728 14.9774 20.7692 14.9918 20.8664 14.9948C21.0934 15.0014 21.3165 14.934 21.502 14.8028C21.6875 14.6716 21.8254 14.4837 21.895 14.2674C21.9461 14.1451 21.9743 14.0145 21.9783 13.8821C21.9573 11.4325 21.3951 9.72274 20.2917 8.75286V8.75286ZM24.2282 24.9399C24.1707 24.3131 23.7282 23.9422 22.9007 23.8272C22.7887 24.2668 22.551 24.6641 22.2167 24.9705C21.8824 25.2769 21.466 25.4791 21.0186 25.5523C20.863 25.5796 20.7054 25.594 20.5474 25.5954C20.4874 25.596 20.4283 25.6108 20.375 25.6385H20.2055V26.3228C21.1666 26.1544 22.1404 26.0688 23.1162 26.0669C23.3432 26.0732 23.5661 26.0053 23.7512 25.8735C23.9363 25.7418 24.0734 25.5533 24.142 25.3367C24.1927 25.2106 24.2181 25.0758 24.2167 24.9399H24.2282Z" fill="#FF0000" stroke="white" stroke-width="3.43841" stroke-miterlimit="10"/>
<path d="M29.8652 24.2989C29.8652 25.5276 29.3949 26.37 28.4544 26.8262C28.1219 26.9938 27.7549 27.0814 27.3826 27.082C26.8018 27.0713 26.2425 26.86 25.7994 26.484C23.8034 24.5979 22.6483 22.385 22.3342 19.8453C21.7752 18.516 21.4824 17.0898 21.4722 15.6476C21.4722 8.76647 23.6837 4.76907 28.1067 3.65544C28.9477 3.45863 29.809 3.36212 30.6726 3.36792C34.5248 3.36792 38.7764 4.92337 43.4274 8.03427C47.3945 10.7177 50.3914 13.659 52.4181 16.8581C53.531 18.6867 54.1584 20.3427 54.3001 21.8263C54.8422 23.2274 55.1133 24.3411 55.1133 25.1672C55.1133 27.8219 53.4152 29.6352 50.0189 30.607C50.0084 30.619 49.9956 30.6287 49.9813 30.6356C49.967 30.6425 49.9514 30.6465 49.9355 30.6472C51.3607 32.0484 53.4573 34.3331 56.2253 37.5015C56.2625 37.5623 56.3058 37.6192 56.3546 37.6712C57.0459 38.4691 57.4256 39.4903 57.4235 40.5463C57.4235 42.0318 56.7818 43.2461 55.4983 44.1891C54.7769 44.7148 53.9082 44.9995 53.0158 45.0028C51.5868 44.974 50.4882 44.4594 49.72 43.4588C48.4079 41.774 47.338 39.4614 46.5105 36.5211C45.8822 34.2958 45.297 32.8112 44.7549 32.0675C44.5701 31.8272 44.3705 31.5987 44.1572 31.3833H43.4705C42.643 31.3833 41.2446 31.3545 39.2754 31.297V31.5098C39.2754 36.5643 38.6624 39.7624 37.4365 41.1041C37.3015 41.271 37.1325 41.4071 36.9407 41.5033C36.749 41.5995 36.5389 41.6535 36.3245 41.6619C34.9836 41.6619 34.0258 41.0763 33.4511 39.9052C33.2536 39.5187 33.1364 39.0962 33.1063 38.6631C32.6083 32.9416 32.0135 28.6001 31.322 25.6387C30.5788 22.5259 30.0041 19.9278 29.598 17.8442C29.5653 17.6893 29.5509 17.531 29.5549 17.3727C29.5226 16.8937 29.647 16.4172 29.9093 16.0152C30.1716 15.6132 30.5576 15.3076 31.0088 15.1445C31.3181 15.0031 31.6543 14.9305 31.9944 14.9317C33.6207 14.9317 35.133 16.2735 36.5314 18.9569C37.1971 20.2851 37.7275 21.677 38.1146 23.1115C39.5972 23.2802 42.0233 23.651 45.3928 24.2242C48.4443 24.1954 50.1271 23.4527 50.4412 21.9959C49.1272 19.7706 46.7873 17.5443 43.4217 15.317C41.4115 13.967 39.2407 12.8736 36.9595 12.0623C37.0744 14.2877 37.1319 15.9572 37.1319 17.0708C37.1032 17.7877 36.8886 18.1595 36.4883 18.1864C36.2029 18.1576 36.0601 17.5721 36.0601 16.4297C36.0601 15.8853 36.0745 15.1004 36.1032 14.0749V11.8036C35.0742 11.4988 34.0138 11.3127 32.9426 11.2487C30.0884 11.2487 28.5617 12.7332 28.3625 15.7023C28.3346 15.9437 28.3202 16.1866 28.3194 16.4297C28.3194 17.3152 28.6479 18.9138 29.3049 21.2254C29.6227 22.2216 29.811 23.2546 29.8652 24.2989ZM25.3713 8.45117C26.5973 6.59766 28.5234 5.66995 31.1496 5.66803C31.7969 5.71338 32.4408 5.79884 33.0776 5.92392C33.502 5.98534 33.9304 6.01417 34.3591 6.01017C34.6177 5.98142 34.7585 5.90955 34.7873 5.79742C34.7873 5.36806 33.6609 5.03934 31.4082 4.81124C30.9801 4.78249 30.6209 4.76812 30.3364 4.76812C27.8462 4.79687 25.9632 5.83958 24.6874 7.89626C24.5113 8.17918 24.4122 8.50332 24.4001 8.83643C24.4288 9.0952 24.5122 9.23895 24.6558 9.26483H24.6989C24.9023 8.97709 25.1271 8.7051 25.3713 8.45117V8.45117ZM28.4544 23.4421C27.9653 23.9046 27.3277 24.1777 26.6557 24.2127C26.1213 24.2053 25.6009 24.0414 25.1587 23.7411C25.5719 24.3854 26.0761 24.9665 26.6557 25.4662C26.8591 25.6407 27.115 25.7419 27.3826 25.7537C28.124 25.6991 28.5119 25.2132 28.532 24.2989C28.5266 24.0118 28.5007 23.7255 28.4544 23.4421ZM36.1147 9.17858C34.8636 8.73139 33.5495 8.48587 32.2214 8.45117C29.2522 8.45117 27.6968 10.0076 27.555 13.1204V13.2066C27.7557 12.747 28.0145 12.3151 28.3251 11.9215C29.3787 10.6085 30.9197 9.95199 32.9483 9.95199C34.018 9.96679 35.081 10.1244 36.109 10.4206L36.1147 9.17858ZM36.7986 9.39421C36.8025 9.59417 36.8169 9.79379 36.8417 9.99224C36.8704 10.2798 36.8848 10.4781 36.8848 10.5931C37.6419 10.822 38.3853 11.0937 39.1116 11.4068C42.7724 12.9923 46.0985 15.2598 48.9126 18.0886C47.0564 15.6333 44.4024 13.3916 40.9506 11.3637C39.6279 10.5848 38.2384 9.92569 36.7986 9.39421V9.39421ZM39.1978 29.5202C39.2025 29.6078 39.217 29.6945 39.2409 29.7789V30.0348C39.5283 30.0348 39.9535 30.0492 40.5225 30.0779H41.8413C40.9839 29.7937 40.0971 29.6076 39.1978 29.523V29.5202ZM48.7833 29.5633C51.808 28.9078 53.463 27.6619 53.7485 25.8256C53.7771 25.5986 53.7915 25.3701 53.7916 25.1413V24.7129C53.2489 25.6234 52.464 26.365 51.5245 26.8549C50.4671 27.683 49.0975 28.1679 47.4156 28.3097C47.8983 28.7199 48.3542 29.1387 48.7833 29.5662V29.5633Z" fill="#FF0000" stroke="white" stroke-width="3.43841" stroke-miterlimit="10"/>
<path d="M59.1421 24.2989C59.1421 25.5276 58.6718 26.37 57.7312 26.8262C57.3988 26.9938 57.0318 27.0814 56.6595 27.082C56.0786 27.0713 55.5193 26.86 55.0763 26.484C53.0803 24.5979 51.9252 22.385 51.611 19.8453C51.0521 18.516 50.7592 17.0898 50.749 15.6476C50.749 8.76647 52.9605 4.76907 57.3836 3.65544C58.2245 3.45863 59.0858 3.36212 59.9495 3.36792C63.8017 3.36792 68.0533 4.92337 72.7043 8.03427C76.6714 10.7177 79.6683 13.659 81.695 16.8581C82.806 18.6867 83.4333 20.3427 83.577 21.8263C84.1172 23.2274 84.3882 24.3411 84.3902 25.1672C84.3902 27.8219 82.692 29.6352 79.2957 30.607C79.2853 30.619 79.2725 30.6287 79.2582 30.6356C79.2438 30.6425 79.2283 30.6465 79.2124 30.6472C80.6376 32.0484 82.7342 34.3331 85.5021 37.5015C85.5394 37.5623 85.5827 37.6192 85.6314 37.6712C86.3228 38.4691 86.7024 39.4903 86.7003 40.5463C86.7003 42.0318 86.0586 43.2461 84.7752 44.1891C84.0537 44.7148 83.185 44.9995 82.2926 45.0028C80.8636 44.974 79.765 44.4594 78.9969 43.4588C77.6847 41.774 76.6149 39.4614 75.7874 36.5211C75.1571 34.2958 74.5719 32.8112 74.0317 32.0675C73.847 31.8272 73.6474 31.5987 73.4341 31.3833H72.7474C71.9198 31.3833 70.5215 31.3545 68.5523 31.297V31.5098C68.5523 36.5643 67.9393 39.7624 66.7133 41.1041C66.5784 41.271 66.4094 41.4071 66.2176 41.5033C66.0258 41.5995 65.8157 41.6535 65.6013 41.6619C64.2605 41.6619 63.3027 41.0763 62.728 39.9052C62.5305 39.5187 62.4132 39.0962 62.3832 38.6631C61.8717 32.9531 61.2731 28.6135 60.5874 25.6445C59.8441 22.5317 59.2694 19.9335 58.8633 17.85C58.8307 17.695 58.8162 17.5368 58.8203 17.3785C58.788 16.8995 58.9124 16.423 59.1747 16.021C59.437 15.619 59.8229 15.3133 60.2742 15.1502C60.5834 15.0088 60.9197 14.9362 61.2597 14.9375C62.886 14.9375 64.3984 16.2792 65.7967 18.9627C66.4732 20.284 67.0152 21.6701 67.4144 23.1C68.8971 23.2687 71.3231 23.6396 74.6926 24.2127C77.7441 24.1839 79.4269 23.4412 79.7411 21.9844C78.427 19.7591 76.0871 17.5328 72.7215 15.3055C70.7114 13.9555 68.5405 12.8621 66.2593 12.0508C66.3743 14.2762 66.4317 15.9457 66.4317 17.0593C66.403 17.7762 66.1885 18.148 65.7881 18.1749C65.5027 18.1461 65.36 17.5606 65.36 16.4182C65.36 15.8738 65.3744 15.0889 65.4031 14.0634V11.7921C64.3741 11.4873 63.3136 11.3012 62.2424 11.2372C59.3882 11.2372 57.8615 12.7217 57.6623 15.6908C57.6345 15.9322 57.6201 16.1751 57.6192 16.4182C57.6192 17.3037 57.9477 18.9023 58.6047 21.2139C58.9157 22.2148 59.0963 23.2517 59.1421 24.2989V24.2989ZM54.6482 8.45117C55.8741 6.59766 57.8002 5.66995 60.4264 5.66803C61.0728 5.71327 61.7158 5.79873 62.3516 5.92392C62.7769 5.98523 63.2063 6.01406 63.636 6.01017C63.8946 5.98142 64.0354 5.90955 64.0641 5.79742C64.0641 5.36806 62.9378 5.03934 60.685 4.81124C60.2569 4.78249 59.8978 4.76812 59.6133 4.76812C57.1231 4.79687 55.2401 5.83958 53.9643 7.89626C53.7869 8.17861 53.6877 8.50309 53.677 8.83643C53.7057 9.0952 53.789 9.23895 53.9327 9.26483H53.9758C54.1792 8.97709 54.4039 8.7051 54.6482 8.45117V8.45117ZM57.7312 23.4421C57.2375 23.9029 56.5956 24.1721 55.921 24.2012C55.3867 24.1938 54.8662 24.0299 54.424 23.7296C54.8372 24.3739 55.3415 24.955 55.921 25.4547C56.1244 25.6292 56.3804 25.7304 56.648 25.7422C57.3893 25.6886 57.7724 25.2036 57.7973 24.2874C57.7941 24.0045 57.772 23.7221 57.7312 23.4421V23.4421ZM65.4031 9.17858C64.152 8.73139 62.8378 8.48587 61.5097 8.45117C58.5406 8.45117 56.9851 10.0076 56.8434 13.1204V13.2066C57.0441 12.747 57.3029 12.3151 57.6135 11.9215C58.667 10.6085 60.2081 9.95199 62.2367 9.95199C63.3064 9.96679 64.3693 10.1244 65.3973 10.4206L65.4031 9.17858ZM66.0869 9.39421C66.0908 9.59417 66.1052 9.79379 66.13 9.99224C66.1588 10.2798 66.1731 10.4781 66.1731 10.5931C66.9302 10.822 67.6737 11.0937 68.4 11.4068C72.0607 12.9923 75.3868 15.2598 78.201 18.0886C76.3448 15.6333 73.6908 13.3916 70.2389 11.3637C68.9126 10.5842 67.5192 9.92506 66.0754 9.39421H66.0869ZM68.4862 29.5202C68.4894 29.6079 68.5039 29.6949 68.5293 29.7789V30.0348C68.8166 30.0348 69.2419 30.0492 69.8108 30.0779H71.1383C70.2744 29.7922 69.3808 29.6061 68.4747 29.523L68.4862 29.5202ZM78.0717 29.5633C81.0963 28.9078 82.7514 27.6619 83.0368 25.8256C83.0655 25.5986 83.0799 25.3701 83.0799 25.1413V24.7129C82.5372 25.6234 81.7523 26.365 80.8128 26.8549C79.7554 27.683 78.3858 28.1679 76.704 28.3097C77.179 28.7199 77.6311 29.1387 78.0602 29.5662L78.0717 29.5633Z" fill="#FF0000" stroke="white" stroke-width="3.43841" stroke-miterlimit="10"/>
<path d="M117.439 27.8096V29.1379C117.41 33.2494 116.097 36.4044 113.5 38.6029C113.701 42.0013 113.802 44.1998 113.802 45.1984C113.744 45.8827 113.514 46.2421 113.158 46.2709C112.872 46.2421 112.73 45.6671 112.73 44.5458C112.73 43.9152 112.744 43.0009 112.773 41.8029V39.1923C110.434 40.8196 107.438 41.6333 103.785 41.6333H102.469C95.9351 41.6333 90.5849 39.6207 86.4185 35.5955C83.0797 32.3696 81.1393 28.5437 80.5971 24.1179C80.512 23.4071 80.4698 22.6919 80.4707 21.976C80.4707 17.6077 81.94 13.9658 84.8784 11.0505C85.2414 10.6854 85.6251 10.3418 86.0278 10.0212C89.3091 7.45461 93.5033 6.17039 98.6102 6.16847C99.2319 6.14774 99.8482 6.29121 100.397 6.58444C100.946 6.87768 101.408 7.31035 101.736 7.83892C101.988 8.19914 102.163 8.60721 102.251 9.03786C106.947 10.0169 111.084 12.7707 113.802 16.726C116.227 20.1474 117.439 23.8419 117.439 27.8096ZM100.874 8.9631C100.722 8.57411 100.466 8.23438 100.134 7.9809C99.8024 7.72741 99.4074 7.56991 98.9923 7.52554C98.8647 7.49861 98.7348 7.48417 98.6044 7.48241C92.4133 7.48241 87.8054 9.36658 84.7807 13.1349C82.7809 15.6382 81.781 18.5881 81.781 21.9846C81.781 26.1535 83.1937 29.9228 86.0191 33.2925C86.5569 33.9133 87.1327 34.5 87.7432 35.0492C84.7472 31.5358 83.2061 27.6237 83.1199 23.3129C83.1199 19.1152 84.5748 15.6746 87.4846 12.9912C90.538 10.1946 94.69 8.79539 99.9405 8.79347C100.26 8.7844 100.578 8.84217 100.874 8.9631V8.9631ZM85.2089 17.83C86.9214 15.6315 88.6195 14.0607 90.3033 13.1177C91.7286 12.3709 93.2182 11.7541 94.7541 11.2747C95.4092 11.0188 95.7512 10.8348 95.7799 10.7198C95.7664 10.6224 95.7215 10.532 95.652 10.4625C95.5825 10.393 95.4922 10.348 95.3949 10.3345C93.826 10.3345 91.8856 11.1012 89.5735 12.6347C87.7289 13.8533 86.1439 15.4256 84.91 17.2607C84.8266 17.4196 84.7823 17.596 84.7807 17.7754C84.7807 17.945 84.8238 18.0313 84.91 18.0313C85.0187 17.9799 85.1193 17.9131 85.2089 17.8329V17.83ZM97.751 15.9871C96.7798 15.9871 96.0519 15.4877 95.5673 14.4891C95.5691 14.4658 95.5662 14.4423 95.5588 14.4201C95.5514 14.3978 95.5396 14.3773 95.5242 14.3597C91.444 15.8433 88.9184 18.2277 87.9472 21.5131C87.7202 22.3647 87.6053 23.2423 87.6052 24.1237C87.6052 27.179 88.79 29.9487 91.1596 32.4328C93.8988 35.2869 97.3363 36.8146 101.472 37.0158H102.202C105.826 37.0158 108.412 35.8169 109.96 33.419C110.845 32.0179 111.287 30.333 111.287 28.3645C111.287 25.2785 110.218 22.5376 108.078 20.1416C105.538 17.3451 102.27 15.9459 98.274 15.9439H97.8027L97.751 15.9871ZM107.038 25.8804C106.638 25.7654 106.423 25.3514 106.397 24.6383C106.405 23.7944 106.229 22.959 105.881 22.1899C105.534 21.4209 105.024 20.7366 104.386 20.1848C103.018 18.9274 101.249 18.2987 99.0785 18.2987C98.7209 18.3086 98.3642 18.3374 98.0096 18.3849C97.4656 18.4424 97.0662 18.4712 96.8114 18.4712C96.4408 18.4424 96.2368 18.2987 96.2109 18.0428C96.2396 17.3297 97.5384 16.9732 100.107 16.9732C102.048 16.9732 103.902 17.6585 105.67 19.029C107.296 20.3707 108.124 21.8408 108.153 23.4394C108.153 24.6106 107.896 25.3773 107.382 25.7395C107.287 25.8245 107.165 25.8751 107.038 25.8833V25.8804ZM102.202 10.4179C102.295 10.6664 102.352 10.9268 102.371 11.1913C102.366 11.2362 102.352 11.2793 102.328 11.3178V11.4472C105.695 12.0054 108.83 13.5216 111.359 15.8146C108.945 13.1039 105.742 11.2177 102.202 10.4208V10.4179Z" fill="#FF0000" stroke="white" stroke-width="3.43841" stroke-miterlimit="10"/>
<path d="M120.571 24.2989C120.571 25.5275 120.101 26.37 119.16 26.8261C118.828 26.9935 118.461 27.0811 118.089 27.082C117.508 27.0713 116.948 26.86 116.505 26.484C114.507 24.5979 113.351 22.385 113.037 19.8453C112.48 18.5156 112.187 17.0897 112.175 15.6476C112.175 8.76646 114.386 4.76906 118.807 3.65542C119.649 3.45879 120.511 3.36228 121.376 3.36791C125.23 3.36791 129.481 4.92336 134.131 8.03426C138.096 10.7177 141.092 13.659 143.118 16.858C144.233 18.6866 144.859 20.3389 144.995 21.8148C145.535 23.2159 145.806 24.3296 145.808 25.1557C145.808 27.8104 144.11 29.6236 140.713 30.5954C140.702 30.6076 140.689 30.6175 140.674 30.6244C140.66 30.6314 140.643 30.6352 140.627 30.6357C142.054 32.0368 144.152 34.3216 146.92 37.49C146.957 37.5508 147 37.6077 147.049 37.6597C147.74 38.4576 148.12 39.4787 148.118 40.5348C148.118 42.0203 147.476 43.2345 146.193 44.1776C145.471 44.7033 144.603 44.988 143.71 44.9912C142.283 44.9625 141.185 44.4478 140.415 43.4473C139.1 41.7625 138.031 39.4499 137.205 36.5096C136.577 34.2842 135.991 32.7997 135.449 32.056C135.264 31.8164 135.064 31.5879 134.852 31.3717H134.165C133.337 31.3717 131.939 31.343 129.97 31.2855V31.4982C129.97 36.5527 129.357 39.7508 128.131 41.0926C127.996 41.2594 127.827 41.3955 127.635 41.4917C127.443 41.5879 127.233 41.642 127.019 41.6503C125.678 41.6503 124.72 41.0648 124.146 39.8936C123.95 39.5065 123.834 39.0842 123.804 38.6516C123.3 32.9377 122.701 28.6001 122.008 25.6387C121.265 22.5259 120.69 19.9277 120.284 17.8442C120.251 17.6893 120.237 17.531 120.241 17.3727C120.208 16.8937 120.333 16.4172 120.595 16.0152C120.857 15.6132 121.243 15.3076 121.695 15.1445C122.004 15.003 122.34 14.9305 122.68 14.9317C124.307 14.9317 125.819 16.2734 127.217 18.9569C127.883 20.2851 128.413 21.677 128.8 23.1115C130.283 23.2801 132.708 23.651 136.076 24.2241C139.129 24.1954 140.813 23.4526 141.127 21.9959C139.813 19.7706 137.473 17.5442 134.108 15.317C132.097 13.9669 129.927 12.8736 127.645 12.0623C127.76 14.2877 127.818 15.9572 127.818 17.0708C127.786 17.7867 127.574 18.1576 127.174 18.1864C126.891 18.1576 126.748 17.572 126.746 16.4297C126.746 15.8853 126.76 15.1004 126.789 14.0749V11.8036C125.76 11.4988 124.7 11.3126 123.628 11.2487C120.774 11.2487 119.248 12.7332 119.048 15.7022C119.02 15.9437 119.006 16.1866 119.005 16.4297C119.005 17.3152 119.334 18.9138 119.991 21.2254C120.314 22.221 120.509 23.2539 120.571 24.2989V24.2989ZM116.077 8.45115C117.303 6.59765 119.229 5.66993 121.856 5.66802C122.502 5.71326 123.145 5.79872 123.781 5.9239C124.206 5.98521 124.635 6.01405 125.065 6.01016C125.324 5.98141 125.465 5.90953 125.493 5.7974C125.493 5.36805 124.366 5.03932 122.111 4.81123C121.686 4.78248 121.327 4.7681 121.042 4.7681C118.552 4.79685 116.669 5.83957 115.393 7.89625C115.211 8.17727 115.107 8.50178 115.092 8.83642C115.123 9.09518 115.207 9.23894 115.35 9.26481H115.399C115.601 8.97653 115.825 8.70448 116.069 8.45115H116.077ZM119.16 23.4421C118.667 23.9022 118.027 24.1714 117.353 24.2011C116.819 24.1943 116.298 24.0303 115.856 23.7296C116.269 24.3739 116.773 24.955 117.353 25.4547C117.556 25.6292 117.812 25.7304 118.08 25.7422C118.821 25.6885 119.204 25.2036 119.229 24.2874C119.222 24.0042 119.196 23.7218 119.152 23.4421H119.16ZM126.821 9.17856C125.569 8.73108 124.254 8.48555 122.924 8.45115C119.959 8.45115 118.405 10.0076 118.261 13.1204V13.2066C118.462 12.747 118.721 12.3151 119.031 11.9214C120.085 10.6085 121.626 9.95197 123.654 9.95197C124.724 9.96677 125.787 10.1244 126.815 10.4206L126.821 9.17856ZM127.505 9.39419C127.508 9.59416 127.523 9.79378 127.548 9.99222C127.576 10.2797 127.591 10.4781 127.591 10.5931C128.348 10.822 129.091 11.0936 129.818 11.4068C133.478 12.9922 136.804 15.2598 139.619 18.0886C137.762 15.6332 135.108 13.3916 131.657 11.3637C130.331 10.5843 128.939 9.9252 127.496 9.39419H127.505ZM129.904 29.5201C129.907 29.6076 129.921 29.6945 129.944 29.7789V30.0348C130.231 30.0348 130.66 30.0492 131.228 30.0779H132.556C131.693 29.7924 130.8 29.6063 129.895 29.523L129.904 29.5201ZM139.489 29.5633C142.516 28.9077 144.171 27.6618 144.454 25.8256C144.483 25.5986 144.498 25.3701 144.498 25.1413V24.7129C143.955 25.6234 143.17 26.365 142.23 26.8549C141.173 27.6829 139.803 28.1679 138.122 28.3097C138.599 28.7199 139.052 29.1387 139.481 29.5661L139.489 29.5633Z" fill="#FF0000" stroke="white" stroke-width="3.43841" stroke-miterlimit="10"/>
<path d="M55.8581 49.1635C57.0937 49.1635 57.9681 49.7452 58.4815 50.9087C58.6627 51.2469 58.7612 51.6233 58.7688 52.007V52.5073C57.7287 58.1464 57.0668 62.3987 56.7833 65.2642C58.2028 65.7971 58.9326 66.5791 58.9728 67.6104C58.9728 68.8773 58.356 69.7456 57.1224 70.2152C56.8572 70.3107 56.5827 70.3782 56.3035 70.4165C56.269 71.0835 56.1991 72.1176 56.0937 73.5188C55.883 76.2195 55.7068 78.3864 55.565 80.0194C55.5606 80.2084 55.5236 80.3951 55.4559 80.5715C55.2043 81.1574 54.7976 81.6635 54.2795 82.0349C53.7615 82.4063 53.1518 82.629 52.5164 82.6789C52.2409 82.6717 51.9666 82.638 51.6975 82.5783C51.6045 82.5517 51.5133 82.5191 51.4245 82.4806C51.1255 82.8876 50.7307 83.2144 50.2752 83.4322C50.3882 85.1573 50.4467 86.8239 50.4505 88.4321C50.3786 89.1681 50.143 89.5505 49.7436 89.5821C49.4161 89.5496 49.2513 88.9496 49.2494 87.7823C49.2494 86.7818 49.282 85.3979 49.3471 83.6306C48.9283 83.6677 48.5065 83.6523 48.0915 83.5846C46.4537 83.1208 45.6281 80.305 45.6146 75.1375C45.6146 73.8379 45.6664 72.4713 45.7698 71.0375C40.1668 71.3825 35.0024 71.8934 30.2767 72.57H29.7739C29.497 72.6682 29.2057 72.7197 28.9119 72.7224C28.382 72.7363 27.8566 72.6211 27.3811 72.3866C26.9056 72.1522 26.4941 71.8057 26.1822 71.3768C25.8808 71.0483 25.7057 70.6234 25.688 70.1779C25.693 70.0218 25.7291 69.8683 25.7943 69.7265C28.1447 63.6216 31.4395 57.4468 35.6786 51.202C37.1309 49.0856 38.6923 47.0463 40.3564 45.0923C42.2069 42.9839 43.677 41.7303 44.767 41.3316C45.1538 41.1995 45.5594 41.1306 45.9681 41.1275C46.4583 41.1569 46.9392 41.2748 47.3875 41.4754C48.4391 40.6742 49.4199 40.2554 50.3298 40.2189C50.9463 40.2032 51.5564 40.3462 52.1018 40.6341C52.6472 40.9221 53.1096 41.3454 53.4445 41.8635C53.7457 42.2843 53.9175 42.784 53.9387 43.3011C53.9042 44.271 53.2711 45.5063 52.0394 47.0071C51.8258 47.2773 51.5985 47.5364 51.3585 47.7834L50.5166 48.6603C50.2292 48.9479 49.9419 49.2699 49.6546 49.5861C49.3672 49.9024 49.0799 50.1957 48.7926 50.4631C48.5052 50.7304 48.2179 50.9978 47.9765 51.2652C47.7352 51.5326 47.5053 51.7597 47.3243 51.9409C47.1433 52.122 46.9795 52.2859 46.8358 52.4181L46.672 52.5677C42.7183 57.212 39.5471 61.8697 37.1584 66.5408C40.1865 65.7774 43.2663 65.2364 46.3732 64.9221C46.7989 61.6461 47.4479 58.4031 48.3156 55.2156C49.3232 51.8805 50.6286 50.1937 52.232 50.1554C52.7006 50.1671 53.1632 50.2646 53.5968 50.4429C54.2653 49.6245 55.0191 49.198 55.8581 49.1635ZM32.4978 67.9036C33.2966 67.6353 34.2592 67.3334 35.3855 66.998C37.8758 61.8917 41.2826 56.8334 45.606 51.823C45.6905 51.7506 45.7641 51.6664 45.8244 51.5729C48.4008 49.0332 50.1248 47.2621 50.9964 46.2596C52.0481 45.0271 52.5739 44.0764 52.5739 43.4075C52.5739 42.5392 52.0806 41.9402 51.0941 41.6105C50.8512 41.5124 50.5918 41.4616 50.3298 41.461C49.6764 41.5235 49.0534 41.7675 48.5311 42.1654C48.8285 42.4196 49.0699 42.7327 49.2401 43.0851C49.4102 43.4375 49.5054 43.8214 49.5195 44.2125C49.485 45.2131 48.8519 46.4647 47.6202 47.9674L46.9938 48.646C46.7544 48.8971 46.5188 49.1558 46.287 49.4223C46.0485 49.6896 45.7957 49.957 45.5227 50.2244C45.2497 50.4918 44.9883 50.7592 44.7354 51.0237C44.4825 51.2882 44.2268 51.5441 43.9711 51.777C43.7154 52.0099 43.4912 52.2284 43.293 52.4296C43.0947 52.6309 42.9108 52.8034 42.747 52.9558L42.339 53.3296L42.2298 53.4819C38.1401 58.3658 34.8961 63.1731 32.4978 67.9036ZM44.3849 43.1228C44.3849 42.7222 44.0755 42.7069 43.4568 43.0768L43.293 43.2263C42.203 44.064 40.8248 45.8005 39.1582 48.4361C38.5836 49.4366 38.2704 50.072 38.2359 50.3394L38.2905 50.3883C38.3652 50.3883 38.483 50.3049 38.6468 50.1382L39.2703 49.4855C39.526 49.2181 39.7961 48.9105 40.0863 48.5338C40.3765 48.1572 40.6869 47.7834 41.0115 47.3838C41.3362 46.9841 41.6552 46.5845 41.9655 46.182C42.2758 45.7795 42.5718 45.4057 42.862 45.0549C43.1522 44.7042 43.405 44.3879 43.6234 44.1033C43.8418 43.8186 44.0228 43.5944 44.1665 43.4276L44.3849 43.1228ZM53.387 64.7094C53.9906 64.7442 54.592 64.8104 55.1886 64.9077C55.2231 64.4745 55.6359 62.3565 56.427 58.5537C56.892 56.3987 57.1422 54.2028 57.1741 51.9984C57.1377 51.3658 56.7728 50.9499 56.0794 50.7506C55.6426 50.6844 55.2174 50.9518 54.772 51.5556C55.0582 51.9653 55.2117 52.4531 55.2116 52.9529V53.4532C54.317 58.2662 53.7089 62.0221 53.387 64.7208V64.7094ZM51.9504 80.9165C52.0995 81.0514 52.2954 81.1226 52.4963 81.1149C53.1888 81.0804 53.6227 80.7641 53.8037 80.1632C53.8098 80.1097 53.8285 80.0585 53.8583 80.0137V79.9131C53.9272 78.7113 54.068 76.8769 54.2807 74.4101C54.4224 72.6102 54.5287 71.2934 54.5996 70.4596L52.798 70.612C52.5528 73.3223 52.2712 76.761 51.9532 80.928L51.9504 80.9165Z" fill="#FF0000" stroke="white" stroke-width="3.43841" stroke-miterlimit="10"/>
<path d="M90.6455 82.5983C88.184 84.5707 85.1852 85.5607 81.6491 85.5684C75.3564 85.5799 70.2218 83.2232 66.2451 78.4984C62.8143 74.4387 60.9466 69.6248 60.642 64.0566C60.6047 63.5563 60.5846 63.0905 60.5846 62.6564C60.5693 56.954 62.2128 52.3826 65.5152 48.942C65.6381 48.8629 65.7484 48.766 65.8428 48.6545C69.0016 45.6126 72.9993 44.0868 77.8361 44.0773C78.3668 44.0729 78.89 44.2023 79.3575 44.4535C79.825 44.7048 80.2218 45.0698 80.5112 45.5148C80.6393 45.6864 80.75 45.8704 80.8417 46.064C81.4955 46.4516 81.9973 47.0511 82.264 47.7632C85.1775 48.7216 87.7463 50.4831 89.9703 53.0477C93.3608 56.2046 95.5158 60.3323 96.4353 65.4309C96.6893 66.8159 96.8219 68.2205 96.8318 69.6286C96.8127 75.8983 94.7506 80.2216 90.6455 82.5983ZM78.9309 45.9145C78.6011 45.718 78.2227 45.6184 77.839 45.6269C71.8739 45.6404 67.4595 47.8667 64.5958 52.3059C62.7109 55.2443 61.7741 58.6944 61.7856 62.6564C61.7971 67.9236 63.3363 72.5718 66.4031 76.6008C69.9048 81.1263 74.4944 83.5836 80.1722 83.9727C74.822 83.0143 70.6317 80.1554 67.6013 75.3961C65.2006 71.6725 63.9375 67.329 63.9665 62.8979C63.955 57.6651 65.5095 53.4617 68.6299 50.2876C71.3136 47.6137 74.7473 46.156 78.9309 45.9145ZM65.9778 56.4921C67.6789 53.824 69.4029 51.9206 71.1499 50.7821C72.4127 50.008 73.7438 49.3517 75.1266 48.8212C75.7012 48.5538 76.0173 48.3382 76.0518 48.1714C76.0519 48.0631 76.0135 47.9582 75.9435 47.8756C75.8735 47.7929 75.7765 47.7378 75.6696 47.72C74.1774 47.72 72.3251 48.6411 70.1126 50.4831C68.2974 51.9578 66.7941 53.7797 65.6905 55.8423C65.6137 56.033 65.5775 56.2377 65.5842 56.4432C65.5956 56.5512 65.6331 56.6548 65.6934 56.7451C65.7652 56.7451 65.837 56.6934 65.9118 56.5927C65.9294 56.5817 65.9444 56.567 65.9558 56.5497C65.9672 56.5323 65.9748 56.5127 65.9778 56.4921ZM78.4108 54.3156C77.6848 54.283 77.1015 53.6515 76.6609 52.4209C72.9869 54.3626 70.9382 57.6009 70.5149 62.136C70.4437 62.6996 70.4082 63.2671 70.4085 63.8352C70.42 67.9026 71.5933 71.4486 73.9284 74.4732C76.2271 77.3694 78.9405 78.83 82.0686 78.8549C85.0511 78.8549 87.1391 77.3675 88.3325 74.3927C88.9474 72.8229 89.2519 70.9387 89.2462 68.7402C89.2347 64.6383 88.1706 61.1393 86.0539 58.2431C84.0847 55.6152 81.6807 54.2869 78.8418 54.2581H78.4597L78.4108 54.3156Z" fill="#FF0000" stroke="white" stroke-width="3.43841" stroke-miterlimit="10"/>
<path d="M127.884 49.0111C129.12 49.0111 129.994 49.5929 130.508 50.7563C130.686 51.0966 130.784 51.4733 130.795 51.8575V52.3578C129.755 57.9931 129.093 62.2454 128.809 65.1148C130.229 65.6438 130.958 66.4258 130.996 67.4609C130.996 68.7259 130.38 69.5942 129.148 70.0657C128.883 70.1596 128.608 70.227 128.33 70.267C128.295 70.934 128.225 71.9672 128.12 73.3664C127.907 76.069 127.731 78.2369 127.591 79.87C127.587 80.0579 127.55 80.2437 127.482 80.4191C127.231 81.006 126.824 81.5129 126.305 81.8845C125.786 82.256 125.176 82.4781 124.54 82.5266C124.265 82.5204 123.992 82.4876 123.724 82.4288C123.63 82.4014 123.539 82.3678 123.451 82.3282C123.151 82.7354 122.756 83.0631 122.301 83.2827C122.414 85.0078 122.473 86.6745 122.477 88.2826C122.406 89.0167 122.17 89.4001 121.77 89.4327C121.442 89.3982 121.278 88.8001 121.276 87.6328C121.276 86.6323 121.308 85.2484 121.373 83.4811C120.954 83.5175 120.532 83.5011 120.118 83.4323C118.48 82.9703 117.654 80.1556 117.641 74.988C117.641 73.6865 117.692 72.3189 117.796 70.8852C112.193 71.2302 107.029 71.741 102.303 72.4176H101.811C101.534 72.5145 101.243 72.565 100.949 72.5671C100.42 72.5809 99.8949 72.4659 99.4194 72.232C98.944 71.9982 98.5324 71.6524 98.2198 71.2244C97.9184 70.8959 97.7433 70.4711 97.7256 70.0255C97.7286 69.8692 97.7648 69.7153 97.8319 69.5741C100.171 63.4769 103.46 57.304 107.699 51.0553C109.151 48.9381 110.713 46.8978 112.377 44.9428C114.227 42.8344 115.697 41.5808 116.787 41.1821C117.174 41.0509 117.58 40.9829 117.988 40.9809C118.479 41.0075 118.96 41.1255 119.408 41.3288C120.459 40.5256 121.44 40.1068 122.35 40.0723C122.965 40.0575 123.573 40.2006 124.117 40.488C124.661 40.7755 125.122 41.1976 125.456 41.714C125.757 42.1349 125.929 42.6345 125.95 43.1516C125.916 44.11 125.283 45.3444 124.051 46.8548C123.838 47.1255 123.611 47.3846 123.37 47.6311L122.525 48.4936C122.238 48.7955 121.951 49.1031 121.663 49.4223C121.376 49.7414 121.089 50.0318 120.801 50.2992C120.514 50.5666 120.227 50.834 119.985 51.1014C119.744 51.3687 119.514 51.593 119.333 51.777C119.152 51.961 118.988 52.1192 118.842 52.2543L118.678 52.4038C114.724 57.0462 111.553 61.7039 109.164 66.377C112.193 65.6124 115.274 65.0714 118.382 64.7583C118.805 61.482 119.453 58.2388 120.322 55.0518C121.333 51.7147 122.638 50.028 124.238 49.9916C124.707 50.0025 125.169 50.0999 125.603 50.2791C126.287 49.4702 127.047 49.0476 127.884 49.0111ZM104.521 67.7656C105.32 67.4992 106.283 67.1973 107.412 66.86C109.902 61.7537 113.309 56.6954 117.632 51.685C117.717 51.6126 117.79 51.5284 117.85 51.4349C120.425 48.8952 122.149 47.1241 123.023 46.1216C124.074 44.8853 124.599 43.9336 124.597 43.2666C124.597 42.4041 124.103 41.8032 123.12 41.4696C122.877 41.3727 122.618 41.3229 122.356 41.323C121.703 41.3838 121.079 41.6269 120.557 42.0245C120.855 42.2792 121.096 42.5929 121.266 42.9458C121.436 43.2987 121.532 43.683 121.546 44.0745C121.511 45.0751 120.877 46.3267 119.643 47.8294C119.462 48.0307 119.253 48.255 119.017 48.5051C118.781 48.7552 118.546 49.014 118.31 49.2814C118.075 49.5488 117.822 49.8162 117.549 50.0836C117.276 50.3509 117.014 50.6183 116.759 50.8857C116.503 51.1531 116.25 51.4032 115.997 51.6361C115.744 51.869 115.517 52.0875 115.316 52.2888C115.115 52.49 114.937 52.6654 114.773 52.8149L114.365 53.1916L114.256 53.3411C110.155 58.2173 106.91 63.0255 104.521 67.7656V67.7656ZM116.411 42.9848C116.411 42.5852 116.101 42.568 115.483 42.936L115.319 43.0855C114.223 43.9135 112.845 45.6511 111.184 48.2981C110.61 49.2986 110.296 49.9341 110.262 50.1986L110.317 50.2503C110.388 50.2503 110.506 50.1669 110.67 49.9973C110.834 49.8277 111.044 49.6149 111.296 49.3475C111.549 49.0801 111.822 48.7725 112.112 48.3958C112.403 48.0192 112.71 47.6426 113.038 47.2458C113.365 46.849 113.681 46.4436 113.989 46.044C114.296 45.6443 114.595 45.2677 114.888 44.9169C115.181 44.5662 115.431 44.247 115.65 43.9653C115.868 43.6835 116.046 43.4564 116.193 43.2867L116.411 42.9848ZM125.413 64.5714C126.017 64.6057 126.618 64.6709 127.215 64.7669C127.249 64.3337 127.662 62.2157 128.453 58.4128C128.915 56.2585 129.163 54.0636 129.192 51.8604C129.155 51.2279 128.79 50.8119 128.097 50.6126C127.66 50.5464 127.235 50.8138 126.789 51.4147C127.075 51.8256 127.229 52.3142 127.229 52.8149V53.3152C126.338 58.1167 125.733 61.8687 125.413 64.5714V64.5714ZM123.976 80.7785C124.126 80.9121 124.322 80.9831 124.522 80.9769C124.816 80.9904 125.106 80.9031 125.344 80.7296C125.581 80.556 125.753 80.3066 125.83 80.0223C125.837 79.9691 125.855 79.9181 125.884 79.8728V79.7722C125.953 78.5742 126.094 76.7409 126.307 74.2721C126.449 72.4703 126.555 71.1526 126.626 70.3188L124.824 70.474C124.579 73.169 124.297 76.6038 123.979 80.7785H123.976Z" fill="#FF0000" stroke="white" stroke-width="3.43841" stroke-miterlimit="10"/>
<path d="M25.5442 24.9399C25.5575 25.3935 25.4392 25.8412 25.2036 26.229C24.968 26.6168 24.6252 26.928 24.2167 27.125C23.8694 27.2912 23.4897 27.3786 23.1047 27.3809C22.1587 27.3697 21.2136 27.4418 20.2802 27.5965C20.3626 28.8539 20.4047 30.1103 20.4066 31.3658C20.3779 32.0788 20.1796 32.4497 19.809 32.4785C19.5216 32.4497 19.3808 31.8661 19.3808 30.7218V27.7661C16.0133 28.5328 13.5738 29.8899 12.0624 31.8373C11.3288 32.7644 10.9244 33.9095 10.9131 35.092C10.9195 35.4126 10.9777 35.7301 11.0855 36.0322C12.37 36.2623 13.6743 36.3635 14.9789 36.334C17.176 36.334 20.5283 35.7485 25.0356 34.5773C26.4914 34.1787 27.5613 33.9074 28.2451 33.7637L29.1071 33.548C29.749 33.372 30.41 33.2754 31.0754 33.2605C31.665 33.228 32.2512 33.3689 32.7617 33.6657C33.2723 33.9625 33.6849 34.4024 33.9487 34.931C33.9705 34.9783 33.9996 35.022 34.0349 35.0604C34.5924 35.0953 35.1289 35.2864 35.5831 35.6117C36.0373 35.9371 36.3909 36.3836 36.6037 36.9005C36.7922 37.3027 36.8903 37.7414 36.891 38.1856C36.9032 38.7383 36.7615 39.2834 36.482 39.7601C36.2024 40.2369 35.7959 40.6265 35.3078 40.8854C34.8594 41.1308 34.3636 41.2769 33.8539 41.3138C27.6053 42.4274 22.1689 42.9842 17.5448 42.9842C12.98 42.9555 9.74172 41.9415 7.82999 39.9423C4.9758 38.5719 3.53434 36.3733 3.50561 33.3468C3.53434 30.4352 5.03231 27.723 7.99952 25.2101L7.22946 24.5661C4.77562 23.3681 3.14739 21.5693 2.34477 19.1695C2.0317 18.29 1.8723 17.3631 1.87354 16.4295C1.87354 13.0598 3.25754 10.247 6.02553 7.99095C8.59518 5.89108 11.8255 4.77053 15.1427 4.8283C16.9126 4.85705 18.2966 5.51354 19.2946 6.79777C21.5473 7.42647 22.8595 9.26847 23.2311 12.3238C23.2892 12.8498 23.318 13.3787 23.3173 13.908C23.3306 14.3616 23.2124 14.8093 22.9768 15.1971C22.7412 15.5849 22.3984 15.8961 21.9898 16.0931C21.6421 16.258 21.2627 16.3453 20.8779 16.349C20.4073 16.37 19.9416 16.2459 19.5438 15.9934C19.146 15.7409 18.8354 15.3723 18.6539 14.9373C18.6026 14.8117 18.5595 14.6831 18.5246 14.552H18.3091C17.8599 14.5754 17.4143 14.4606 17.0321 14.2232C16.65 13.9857 16.3496 13.637 16.1713 13.2237C16.0075 12.8895 15.9192 12.5234 15.9127 12.1513V11.8638C15.8887 11.7804 15.8743 11.6945 15.8696 11.6079C13.3794 12.0372 11.5395 13.1509 10.3499 14.9488C9.69341 15.8932 9.33509 17.0129 9.32126 18.1632C9.33264 18.9628 9.55465 19.7453 9.96489 20.4317C11.2567 20.8126 12.5977 21.0006 13.9445 20.9894C14.4578 20.9894 16.0133 20.9032 18.6108 20.7307C19.0389 20.7048 19.4498 20.6904 19.8521 20.6904C21.5914 20.7192 22.6181 21.3182 22.9323 22.4874C24.5586 22.8382 25.4292 23.6557 25.5442 24.9399ZM11.8469 6.78052C11.8182 6.58213 11.6458 6.46713 11.3326 6.43838C9.67755 6.43838 8.0225 7.16675 6.36746 8.62348C5.15383 9.71696 4.21474 11.0812 3.62629 12.6055V12.6487C3.62629 12.9908 3.71249 13.1633 3.88201 13.1633C4.14061 13.1633 4.39634 12.9621 4.65494 12.5624C4.67002 12.5005 4.69846 12.4426 4.73827 12.3928C5.53706 10.4492 7.24957 8.90716 9.87581 7.76669C10.3485 7.56297 10.8342 7.39104 11.3297 7.25204C11.6458 7.11116 11.8182 6.95015 11.8469 6.78052ZM7.99377 18.1632C7.99377 15.3935 9.30689 13.2227 11.9331 11.651C13.1082 10.9642 14.3999 10.5002 15.7432 10.2824C15.5708 9.88279 15.3697 9.66716 15.1427 9.63841C12.4877 9.63841 10.3193 10.4808 8.6374 12.1656C7.38079 13.3924 6.75249 14.806 6.75249 16.4065C6.74742 16.9988 6.87125 17.5852 7.11536 18.1249C7.35948 18.6646 7.71805 19.1446 8.16617 19.5318C8.06561 19.082 8.00789 18.6238 7.99377 18.1632V18.1632ZM19.4297 25.6673C16.1732 25.9261 13.434 26.8691 11.2119 28.4964C9.35574 29.9225 8.41328 31.5354 8.38455 33.3353C8.37652 33.7727 8.48319 34.2047 8.69392 34.5881C8.90464 34.9714 9.21208 35.2929 9.58561 35.5204V35.092C9.61242 33.2059 10.4256 31.5067 12.0251 29.9944C13.8506 28.3095 16.3188 27.1394 19.4297 26.4838V25.6673ZM34.3711 36.4606C34.3698 37.0155 34.2126 37.5588 33.9174 38.0286C33.6222 38.4984 33.2009 38.8756 32.7017 39.1172C32.2704 39.3661 31.7877 39.5127 31.2909 39.5456C25.0423 40.6592 19.6059 41.216 14.9817 41.216C14.4416 41.216 13.7002 41.1873 12.7578 41.1298C14.3307 41.4823 15.9386 41.6549 17.5505 41.6444C22.2609 41.6444 27.6111 41.102 33.601 40.0171C33.674 40.0089 33.746 39.9944 33.8165 39.974C34.2841 39.9459 34.7252 39.7472 35.0562 39.4155C35.3872 39.0838 35.5851 38.6421 35.6124 38.1741C35.6293 37.8246 35.5349 37.4787 35.3428 37.1863C35.1507 36.8938 34.8708 36.6699 34.5435 36.5468C34.4807 36.5303 34.422 36.501 34.3711 36.4606V36.4606ZM20.2917 8.75286C20.5855 9.8524 20.7257 10.9874 20.7083 12.1254C20.7051 12.497 20.6187 12.8631 20.4556 13.1969C20.2925 13.5307 20.0569 13.8238 19.7659 14.0546C19.807 14.264 19.9045 14.4582 20.0478 14.6163C20.1911 14.7743 20.3748 14.8903 20.579 14.9517C20.6728 14.9774 20.7692 14.9918 20.8664 14.9948C21.0934 15.0014 21.3165 14.934 21.502 14.8028C21.6875 14.6716 21.8254 14.4837 21.895 14.2674C21.9461 14.1451 21.9743 14.0145 21.9783 13.8821C21.9573 11.4325 21.3951 9.72274 20.2917 8.75286V8.75286ZM24.2282 24.9399C24.1707 24.3131 23.7282 23.9422 22.9007 23.8272C22.7887 24.2668 22.551 24.6641 22.2167 24.9705C21.8824 25.2769 21.466 25.4791 21.0186 25.5523C20.863 25.5796 20.7054 25.594 20.5474 25.5954C20.4874 25.596 20.4283 25.6108 20.375 25.6385H20.2055V26.3228C21.1666 26.1544 22.1404 26.0688 23.1162 26.0669C23.3432 26.0732 23.5661 26.0053 23.7512 25.8735C23.9363 25.7418 24.0734 25.5533 24.142 25.3367C24.1927 25.2106 24.2181 25.0758 24.2167 24.9399H24.2282Z" fill="#FF0000"/>
<path d="M29.8652 24.2989C29.8652 25.5276 29.3949 26.37 28.4544 26.8262C28.1219 26.9938 27.7549 27.0814 27.3826 27.082C26.8018 27.0713 26.2425 26.86 25.7994 26.484C23.8034 24.5979 22.6483 22.385 22.3342 19.8453C21.7752 18.516 21.4824 17.0898 21.4722 15.6476C21.4722 8.76647 23.6837 4.76907 28.1067 3.65544C28.9477 3.45863 29.809 3.36212 30.6726 3.36792C34.5248 3.36792 38.7764 4.92337 43.4274 8.03427C47.3945 10.7177 50.3914 13.659 52.4181 16.8581C53.531 18.6867 54.1584 20.3427 54.3001 21.8263C54.8422 23.2274 55.1133 24.3411 55.1133 25.1672C55.1133 27.8219 53.4152 29.6352 50.0189 30.607C50.0084 30.619 49.9956 30.6287 49.9813 30.6356C49.967 30.6425 49.9514 30.6465 49.9355 30.6472C51.3607 32.0484 53.4573 34.3331 56.2253 37.5015C56.2625 37.5623 56.3058 37.6192 56.3546 37.6712C57.0459 38.4691 57.4256 39.4903 57.4235 40.5463C57.4235 42.0318 56.7818 43.2461 55.4983 44.1891C54.7769 44.7148 53.9082 44.9995 53.0158 45.0028C51.5868 44.974 50.4882 44.4594 49.72 43.4588C48.4079 41.774 47.338 39.4614 46.5105 36.5211C45.8822 34.2958 45.297 32.8112 44.7549 32.0675C44.5701 31.8272 44.3705 31.5987 44.1572 31.3833H43.4705C42.643 31.3833 41.2446 31.3545 39.2754 31.297V31.5098C39.2754 36.5643 38.6624 39.7624 37.4365 41.1041C37.3015 41.271 37.1325 41.4071 36.9407 41.5033C36.749 41.5995 36.5389 41.6535 36.3245 41.6619C34.9836 41.6619 34.0258 41.0763 33.4511 39.9052C33.2536 39.5187 33.1364 39.0962 33.1063 38.6631C32.6083 32.9416 32.0135 28.6001 31.322 25.6387C30.5788 22.5259 30.0041 19.9278 29.598 17.8442C29.5653 17.6893 29.5509 17.531 29.5549 17.3727C29.5226 16.8937 29.647 16.4172 29.9093 16.0152C30.1716 15.6132 30.5576 15.3076 31.0088 15.1445C31.3181 15.0031 31.6543 14.9305 31.9944 14.9317C33.6207 14.9317 35.133 16.2735 36.5314 18.9569C37.1971 20.2851 37.7275 21.677 38.1146 23.1115C39.5972 23.2802 42.0233 23.651 45.3928 24.2242C48.4443 24.1954 50.1271 23.4527 50.4412 21.9959C49.1272 19.7706 46.7873 17.5443 43.4217 15.317C41.4115 13.967 39.2407 12.8736 36.9595 12.0623C37.0744 14.2877 37.1319 15.9572 37.1319 17.0708C37.1032 17.7877 36.8886 18.1595 36.4883 18.1864C36.2029 18.1576 36.0601 17.5721 36.0601 16.4297C36.0601 15.8853 36.0745 15.1004 36.1032 14.0749V11.8036C35.0742 11.4988 34.0138 11.3127 32.9426 11.2487C30.0884 11.2487 28.5617 12.7332 28.3625 15.7023C28.3346 15.9437 28.3202 16.1866 28.3194 16.4297C28.3194 17.3152 28.6479 18.9138 29.3049 21.2254C29.6227 22.2216 29.811 23.2546 29.8652 24.2989ZM25.3713 8.45117C26.5973 6.59766 28.5234 5.66995 31.1496 5.66803C31.7969 5.71338 32.4408 5.79884 33.0776 5.92392C33.502 5.98534 33.9304 6.01417 34.3591 6.01017C34.6177 5.98142 34.7585 5.90955 34.7873 5.79742C34.7873 5.36806 33.6609 5.03934 31.4082 4.81124C30.9801 4.78249 30.6209 4.76812 30.3364 4.76812C27.8462 4.79687 25.9632 5.83958 24.6874 7.89626C24.5113 8.17918 24.4122 8.50332 24.4001 8.83643C24.4288 9.0952 24.5122 9.23895 24.6558 9.26483H24.6989C24.9023 8.97709 25.1271 8.7051 25.3713 8.45117V8.45117ZM28.4544 23.4421C27.9653 23.9046 27.3277 24.1777 26.6557 24.2127C26.1213 24.2053 25.6009 24.0414 25.1587 23.7411C25.5719 24.3854 26.0761 24.9665 26.6557 25.4662C26.8591 25.6407 27.115 25.7419 27.3826 25.7537C28.124 25.6991 28.5119 25.2132 28.532 24.2989C28.5266 24.0118 28.5007 23.7255 28.4544 23.4421ZM36.1147 9.17858C34.8636 8.73139 33.5495 8.48587 32.2214 8.45117C29.2522 8.45117 27.6968 10.0076 27.555 13.1204V13.2066C27.7557 12.747 28.0145 12.3151 28.3251 11.9215C29.3787 10.6085 30.9197 9.95199 32.9483 9.95199C34.018 9.96679 35.081 10.1244 36.109 10.4206L36.1147 9.17858ZM36.7986 9.39421C36.8025 9.59417 36.8169 9.79379 36.8417 9.99224C36.8704 10.2798 36.8848 10.4781 36.8848 10.5931C37.6419 10.822 38.3853 11.0937 39.1116 11.4068C42.7724 12.9923 46.0985 15.2598 48.9126 18.0886C47.0564 15.6333 44.4024 13.3916 40.9506 11.3637C39.6279 10.5848 38.2384 9.92569 36.7986 9.39421V9.39421ZM39.1978 29.5202C39.2025 29.6078 39.217 29.6945 39.2409 29.7789V30.0348C39.5283 30.0348 39.9535 30.0492 40.5225 30.0779H41.8413C40.9839 29.7937 40.0971 29.6076 39.1978 29.523V29.5202ZM48.7833 29.5633C51.808 28.9078 53.463 27.6619 53.7485 25.8256C53.7771 25.5986 53.7915 25.3701 53.7916 25.1413V24.7129C53.2489 25.6234 52.464 26.365 51.5245 26.8549C50.4671 27.683 49.0975 28.1679 47.4156 28.3097C47.8983 28.7199 48.3542 29.1387 48.7833 29.5662V29.5633Z" fill="#FF0000"/>
<path d="M59.1421 24.2989C59.1421 25.5276 58.6718 26.37 57.7312 26.8262C57.3988 26.9938 57.0318 27.0814 56.6595 27.082C56.0786 27.0713 55.5193 26.86 55.0763 26.484C53.0803 24.5979 51.9252 22.385 51.611 19.8453C51.0521 18.516 50.7592 17.0898 50.749 15.6476C50.749 8.76647 52.9605 4.76907 57.3836 3.65544C58.2245 3.45863 59.0858 3.36212 59.9495 3.36792C63.8017 3.36792 68.0533 4.92337 72.7043 8.03427C76.6714 10.7177 79.6683 13.659 81.695 16.8581C82.806 18.6867 83.4333 20.3427 83.577 21.8263C84.1172 23.2274 84.3882 24.3411 84.3902 25.1672C84.3902 27.8219 82.692 29.6352 79.2957 30.607C79.2853 30.619 79.2725 30.6287 79.2582 30.6356C79.2438 30.6425 79.2283 30.6465 79.2124 30.6472C80.6376 32.0484 82.7342 34.3331 85.5021 37.5015C85.5394 37.5623 85.5827 37.6192 85.6314 37.6712C86.3228 38.4691 86.7024 39.4903 86.7003 40.5463C86.7003 42.0318 86.0586 43.2461 84.7752 44.1891C84.0537 44.7148 83.185 44.9995 82.2926 45.0028C80.8636 44.974 79.765 44.4594 78.9969 43.4588C77.6847 41.774 76.6149 39.4614 75.7874 36.5211C75.1571 34.2958 74.5719 32.8112 74.0317 32.0675C73.847 31.8272 73.6474 31.5987 73.4341 31.3833H72.7474C71.9198 31.3833 70.5215 31.3545 68.5523 31.297V31.5098C68.5523 36.5643 67.9393 39.7624 66.7133 41.1041C66.5784 41.271 66.4094 41.4071 66.2176 41.5033C66.0258 41.5995 65.8157 41.6535 65.6013 41.6619C64.2605 41.6619 63.3027 41.0763 62.728 39.9052C62.5305 39.5187 62.4132 39.0962 62.3832 38.6631C61.8717 32.9531 61.2731 28.6135 60.5874 25.6445C59.8441 22.5317 59.2694 19.9335 58.8633 17.85C58.8307 17.695 58.8162 17.5368 58.8203 17.3785C58.788 16.8995 58.9124 16.423 59.1747 16.021C59.437 15.619 59.8229 15.3133 60.2742 15.1502C60.5834 15.0088 60.9197 14.9362 61.2597 14.9375C62.886 14.9375 64.3984 16.2792 65.7967 18.9627C66.4732 20.284 67.0152 21.6701 67.4144 23.1C68.8971 23.2687 71.3231 23.6396 74.6926 24.2127C77.7441 24.1839 79.4269 23.4412 79.7411 21.9844C78.427 19.7591 76.0871 17.5328 72.7215 15.3055C70.7114 13.9555 68.5405 12.8621 66.2593 12.0508C66.3743 14.2762 66.4317 15.9457 66.4317 17.0593C66.403 17.7762 66.1885 18.148 65.7881 18.1749C65.5027 18.1461 65.36 17.5606 65.36 16.4182C65.36 15.8738 65.3744 15.0889 65.4031 14.0634V11.7921C64.3741 11.4873 63.3136 11.3012 62.2424 11.2372C59.3882 11.2372 57.8615 12.7217 57.6623 15.6908C57.6345 15.9322 57.6201 16.1751 57.6192 16.4182C57.6192 17.3037 57.9477 18.9023 58.6047 21.2139C58.9157 22.2148 59.0963 23.2517 59.1421 24.2989V24.2989ZM54.6482 8.45117C55.8741 6.59766 57.8002 5.66995 60.4264 5.66803C61.0728 5.71327 61.7158 5.79873 62.3516 5.92392C62.7769 5.98523 63.2063 6.01406 63.636 6.01017C63.8946 5.98142 64.0354 5.90955 64.0641 5.79742C64.0641 5.36806 62.9378 5.03934 60.685 4.81124C60.2569 4.78249 59.8978 4.76812 59.6133 4.76812C57.1231 4.79687 55.2401 5.83958 53.9643 7.89626C53.7869 8.17861 53.6877 8.50309 53.677 8.83643C53.7057 9.0952 53.789 9.23895 53.9327 9.26483H53.9758C54.1792 8.97709 54.4039 8.7051 54.6482 8.45117V8.45117ZM57.7312 23.4421C57.2375 23.9029 56.5956 24.1721 55.921 24.2012C55.3867 24.1938 54.8662 24.0299 54.424 23.7296C54.8372 24.3739 55.3415 24.955 55.921 25.4547C56.1244 25.6292 56.3804 25.7304 56.648 25.7422C57.3893 25.6886 57.7724 25.2036 57.7973 24.2874C57.7941 24.0045 57.772 23.7221 57.7312 23.4421V23.4421ZM65.4031 9.17858C64.152 8.73139 62.8378 8.48587 61.5097 8.45117C58.5406 8.45117 56.9851 10.0076 56.8434 13.1204V13.2066C57.0441 12.747 57.3029 12.3151 57.6135 11.9215C58.667 10.6085 60.2081 9.95199 62.2367 9.95199C63.3064 9.96679 64.3693 10.1244 65.3973 10.4206L65.4031 9.17858ZM66.0869 9.39421C66.0908 9.59417 66.1052 9.79379 66.13 9.99224C66.1588 10.2798 66.1731 10.4781 66.1731 10.5931C66.9302 10.822 67.6737 11.0937 68.4 11.4068C72.0607 12.9923 75.3868 15.2598 78.201 18.0886C76.3448 15.6333 73.6908 13.3916 70.2389 11.3637C68.9126 10.5842 67.5192 9.92506 66.0754 9.39421H66.0869ZM68.4862 29.5202C68.4894 29.6079 68.5039 29.6949 68.5293 29.7789V30.0348C68.8166 30.0348 69.2419 30.0492 69.8108 30.0779H71.1383C70.2744 29.7922 69.3808 29.6061 68.4747 29.523L68.4862 29.5202ZM78.0717 29.5633C81.0963 28.9078 82.7514 27.6619 83.0368 25.8256C83.0655 25.5986 83.0799 25.3701 83.0799 25.1413V24.7129C82.5372 25.6234 81.7523 26.365 80.8128 26.8549C79.7554 27.683 78.3858 28.1679 76.704 28.3097C77.179 28.7199 77.6311 29.1387 78.0602 29.5662L78.0717 29.5633Z" fill="#FF0000"/>
<path d="M117.439 27.8096V29.1379C117.41 33.2494 116.097 36.4044 113.5 38.6029C113.701 42.0013 113.802 44.1998 113.802 45.1984C113.744 45.8827 113.514 46.2421 113.158 46.2709C112.872 46.2421 112.73 45.6671 112.73 44.5458C112.73 43.9152 112.744 43.0009 112.773 41.8029V39.1923C110.434 40.8196 107.438 41.6333 103.785 41.6333H102.469C95.9351 41.6333 90.5849 39.6207 86.4185 35.5955C83.0797 32.3696 81.1393 28.5437 80.5971 24.1179C80.512 23.4071 80.4698 22.6919 80.4707 21.976C80.4707 17.6077 81.94 13.9658 84.8784 11.0505C85.2414 10.6854 85.6251 10.3418 86.0278 10.0212C89.3091 7.45461 93.5033 6.17039 98.6102 6.16847C99.2319 6.14774 99.8482 6.29121 100.397 6.58444C100.946 6.87768 101.408 7.31035 101.736 7.83892C101.988 8.19914 102.163 8.60721 102.251 9.03786C106.947 10.0169 111.084 12.7707 113.802 16.726C116.227 20.1474 117.439 23.8419 117.439 27.8096ZM100.874 8.9631C100.722 8.57411 100.466 8.23438 100.134 7.9809C99.8024 7.72741 99.4074 7.56991 98.9923 7.52554C98.8647 7.49861 98.7348 7.48417 98.6044 7.48241C92.4133 7.48241 87.8054 9.36658 84.7807 13.1349C82.7809 15.6382 81.781 18.5881 81.781 21.9846C81.781 26.1535 83.1937 29.9228 86.0191 33.2925C86.5569 33.9133 87.1327 34.5 87.7432 35.0492C84.7472 31.5358 83.2061 27.6237 83.1199 23.3129C83.1199 19.1152 84.5748 15.6746 87.4846 12.9912C90.538 10.1946 94.69 8.79539 99.9405 8.79347C100.26 8.7844 100.578 8.84217 100.874 8.9631V8.9631ZM85.2089 17.83C86.9214 15.6315 88.6195 14.0607 90.3033 13.1177C91.7286 12.3709 93.2182 11.7541 94.7541 11.2747C95.4092 11.0188 95.7512 10.8348 95.7799 10.7198C95.7664 10.6224 95.7215 10.532 95.652 10.4625C95.5825 10.393 95.4922 10.348 95.3949 10.3345C93.826 10.3345 91.8856 11.1012 89.5735 12.6347C87.7289 13.8533 86.1439 15.4256 84.91 17.2607C84.8266 17.4196 84.7823 17.596 84.7807 17.7754C84.7807 17.945 84.8238 18.0313 84.91 18.0313C85.0187 17.9799 85.1193 17.9131 85.2089 17.8329V17.83ZM97.751 15.9871C96.7798 15.9871 96.0519 15.4877 95.5673 14.4891C95.5691 14.4658 95.5662 14.4423 95.5588 14.4201C95.5514 14.3978 95.5396 14.3773 95.5242 14.3597C91.444 15.8433 88.9184 18.2277 87.9472 21.5131C87.7202 22.3647 87.6053 23.2423 87.6052 24.1237C87.6052 27.179 88.79 29.9487 91.1596 32.4328C93.8988 35.2869 97.3363 36.8146 101.472 37.0158H102.202C105.826 37.0158 108.412 35.8169 109.96 33.419C110.845 32.0179 111.287 30.333 111.287 28.3645C111.287 25.2785 110.218 22.5376 108.078 20.1416C105.538 17.3451 102.27 15.9459 98.274 15.9439H97.8027L97.751 15.9871ZM107.038 25.8804C106.638 25.7654 106.423 25.3514 106.397 24.6383C106.405 23.7944 106.229 22.959 105.881 22.1899C105.534 21.4209 105.024 20.7366 104.386 20.1848C103.018 18.9274 101.249 18.2987 99.0785 18.2987C98.7209 18.3086 98.3642 18.3374 98.0096 18.3849C97.4656 18.4424 97.0662 18.4712 96.8114 18.4712C96.4408 18.4424 96.2368 18.2987 96.2109 18.0428C96.2396 17.3297 97.5384 16.9732 100.107 16.9732C102.048 16.9732 103.902 17.6585 105.67 19.029C107.296 20.3707 108.124 21.8408 108.153 23.4394C108.153 24.6106 107.896 25.3773 107.382 25.7395C107.287 25.8245 107.165 25.8751 107.038 25.8833V25.8804ZM102.202 10.4179C102.295 10.6664 102.352 10.9268 102.371 11.1913C102.366 11.2362 102.352 11.2793 102.328 11.3178V11.4472C105.695 12.0054 108.83 13.5216 111.359 15.8146C108.945 13.1039 105.742 11.2177 102.202 10.4208V10.4179Z" fill="#FF0000"/>
<path d="M120.571 24.2989C120.571 25.5275 120.101 26.37 119.16 26.8261C118.828 26.9935 118.461 27.0811 118.089 27.082C117.508 27.0713 116.948 26.86 116.505 26.484C114.507 24.5979 113.351 22.385 113.037 19.8453C112.48 18.5156 112.187 17.0897 112.175 15.6476C112.175 8.76646 114.386 4.76906 118.807 3.65542C119.649 3.45879 120.511 3.36228 121.376 3.36791C125.23 3.36791 129.481 4.92336 134.131 8.03426C138.096 10.7177 141.092 13.659 143.118 16.858C144.233 18.6866 144.859 20.3389 144.995 21.8148C145.535 23.2159 145.806 24.3296 145.808 25.1557C145.808 27.8104 144.11 29.6236 140.713 30.5954C140.702 30.6076 140.689 30.6175 140.674 30.6244C140.66 30.6314 140.643 30.6352 140.627 30.6357C142.054 32.0368 144.152 34.3216 146.92 37.49C146.957 37.5508 147 37.6077 147.049 37.6597C147.74 38.4576 148.12 39.4787 148.118 40.5348C148.118 42.0203 147.476 43.2345 146.193 44.1776C145.471 44.7033 144.603 44.988 143.71 44.9912C142.283 44.9625 141.185 44.4478 140.415 43.4473C139.1 41.7625 138.031 39.4499 137.205 36.5096C136.577 34.2842 135.991 32.7997 135.449 32.056C135.264 31.8164 135.064 31.5879 134.852 31.3717H134.165C133.337 31.3717 131.939 31.343 129.97 31.2855V31.4982C129.97 36.5527 129.357 39.7508 128.131 41.0926C127.996 41.2594 127.827 41.3955 127.635 41.4917C127.443 41.5879 127.233 41.642 127.019 41.6503C125.678 41.6503 124.72 41.0648 124.146 39.8936C123.95 39.5065 123.834 39.0842 123.804 38.6516C123.3 32.9377 122.701 28.6001 122.008 25.6387C121.265 22.5259 120.69 19.9277 120.284 17.8442C120.251 17.6893 120.237 17.531 120.241 17.3727C120.208 16.8937 120.333 16.4172 120.595 16.0152C120.857 15.6132 121.243 15.3076 121.695 15.1445C122.004 15.003 122.34 14.9305 122.68 14.9317C124.307 14.9317 125.819 16.2734 127.217 18.9569C127.883 20.2851 128.413 21.677 128.8 23.1115C130.283 23.2801 132.708 23.651 136.076 24.2241C139.129 24.1954 140.813 23.4526 141.127 21.9959C139.813 19.7706 137.473 17.5442 134.108 15.317C132.097 13.9669 129.927 12.8736 127.645 12.0623C127.76 14.2877 127.818 15.9572 127.818 17.0708C127.786 17.7867 127.574 18.1576 127.174 18.1864C126.891 18.1576 126.748 17.572 126.746 16.4297C126.746 15.8853 126.76 15.1004 126.789 14.0749V11.8036C125.76 11.4988 124.7 11.3126 123.628 11.2487C120.774 11.2487 119.248 12.7332 119.048 15.7022C119.02 15.9437 119.006 16.1866 119.005 16.4297C119.005 17.3152 119.334 18.9138 119.991 21.2254C120.314 22.221 120.509 23.2539 120.571 24.2989V24.2989ZM116.077 8.45115C117.303 6.59765 119.229 5.66993 121.856 5.66802C122.502 5.71326 123.145 5.79872 123.781 5.9239C124.206 5.98521 124.635 6.01405 125.065 6.01016C125.324 5.98141 125.465 5.90953 125.493 5.7974C125.493 5.36805 124.366 5.03932 122.111 4.81123C121.686 4.78248 121.327 4.7681 121.042 4.7681C118.552 4.79685 116.669 5.83957 115.393 7.89625C115.211 8.17727 115.107 8.50178 115.092 8.83642C115.123 9.09518 115.207 9.23894 115.35 9.26481H115.399C115.601 8.97653 115.825 8.70448 116.069 8.45115H116.077ZM119.16 23.4421C118.667 23.9022 118.027 24.1714 117.353 24.2011C116.819 24.1943 116.298 24.0303 115.856 23.7296C116.269 24.3739 116.773 24.955 117.353 25.4547C117.556 25.6292 117.812 25.7304 118.08 25.7422C118.821 25.6885 119.204 25.2036 119.229 24.2874C119.222 24.0042 119.196 23.7218 119.152 23.4421H119.16ZM126.821 9.17856C125.569 8.73108 124.254 8.48555 122.924 8.45115C119.959 8.45115 118.405 10.0076 118.261 13.1204V13.2066C118.462 12.747 118.721 12.3151 119.031 11.9214C120.085 10.6085 121.626 9.95197 123.654 9.95197C124.724 9.96677 125.787 10.1244 126.815 10.4206L126.821 9.17856ZM127.505 9.39419C127.508 9.59416 127.523 9.79378 127.548 9.99222C127.576 10.2797 127.591 10.4781 127.591 10.5931C128.348 10.822 129.091 11.0936 129.818 11.4068C133.478 12.9922 136.804 15.2598 139.619 18.0886C137.762 15.6332 135.108 13.3916 131.657 11.3637C130.331 10.5843 128.939 9.9252 127.496 9.39419H127.505ZM129.904 29.5201C129.907 29.6076 129.921 29.6945 129.944 29.7789V30.0348C130.231 30.0348 130.66 30.0492 131.228 30.0779H132.556C131.693 29.7924 130.8 29.6063 129.895 29.523L129.904 29.5201ZM139.489 29.5633C142.516 28.9077 144.171 27.6618 144.454 25.8256C144.483 25.5986 144.498 25.3701 144.498 25.1413V24.7129C143.955 25.6234 143.17 26.365 142.23 26.8549C141.173 27.6829 139.803 28.1679 138.122 28.3097C138.599 28.7199 139.052 29.1387 139.481 29.5661L139.489 29.5633Z" fill="#FF0000"/>
<path d="M55.571 49.1635C56.8065 49.1635 57.681 49.7452 58.1944 50.9087C58.3756 51.2469 58.4741 51.6233 58.4817 52.007V52.5073C57.4416 58.1464 56.7797 62.3987 56.4962 65.2643C57.9157 65.7971 58.6455 66.5791 58.6857 67.6104C58.6857 68.8773 58.0689 69.7456 56.8353 70.2152C56.5701 70.3107 56.2956 70.3782 56.0164 70.4165C55.9819 71.0835 55.912 72.1176 55.8066 73.5188C55.5959 76.2195 55.4197 78.3864 55.2779 80.0194C55.2734 80.2084 55.2365 80.3951 55.1687 80.5715C54.9172 81.1574 54.5105 81.6635 53.9924 82.0349C53.4743 82.4063 52.8647 82.629 52.2293 82.6789C51.9538 82.6717 51.6795 82.638 51.4104 82.5783C51.3174 82.5517 51.2262 82.5191 51.1374 82.4806C50.8384 82.8876 50.4436 83.2144 49.9881 83.4322C50.1011 85.1573 50.1595 86.8239 50.1634 88.4321C50.0915 89.1681 49.8559 89.5505 49.4565 89.5821C49.129 89.5496 48.9642 88.9496 48.9623 87.7823C48.9623 86.7818 48.9949 85.3979 49.06 83.6306C48.6412 83.6677 48.2194 83.6523 47.8044 83.5846C46.1666 83.1208 45.3409 80.305 45.3275 75.1375C45.3275 73.8379 45.3793 72.4713 45.4827 71.0375C39.8797 71.3825 34.7153 71.8934 29.9896 72.57H29.4868C29.2099 72.6682 28.9186 72.7197 28.6248 72.7224C28.0949 72.7363 27.5695 72.6211 27.094 72.3867C26.6185 72.1522 26.207 71.8057 25.8951 71.3768C25.5937 71.0483 25.4186 70.6234 25.4009 70.1779C25.4059 70.0218 25.442 69.8683 25.5072 69.7265C27.8576 63.6216 31.1524 57.4468 35.3915 51.202C36.8438 49.0856 38.4052 47.0463 40.0693 45.0923C41.9197 42.9839 43.3899 41.7303 44.4799 41.3316C44.8667 41.1995 45.2722 41.1306 45.681 41.1275C46.1712 41.1569 46.6521 41.2748 47.1004 41.4754C48.152 40.6742 49.1328 40.2554 50.0427 40.2189C50.6592 40.2032 51.2693 40.3462 51.8147 40.6341C52.3601 40.9221 52.8224 41.3454 53.1574 41.8635C53.4586 42.2843 53.6303 42.784 53.6516 43.3011C53.6171 44.271 52.984 45.5063 51.7523 47.0071C51.5387 47.2773 51.3114 47.5364 51.0714 47.7834L50.2295 48.6603C49.9421 48.9479 49.6548 49.2699 49.3675 49.5861C49.0801 49.9024 48.7928 50.1957 48.5055 50.4631C48.2181 50.7304 47.9308 50.9978 47.6894 51.2652C47.4481 51.5326 47.2182 51.7597 47.0372 51.9409C46.8561 52.122 46.6924 52.2859 46.5487 52.4182L46.3849 52.5677C42.4312 57.212 39.26 61.8697 36.8713 66.5408C39.8994 65.7774 42.9792 65.2364 46.0861 64.9221C46.5118 61.6461 47.1607 58.4031 48.0285 55.2157C49.0361 51.8805 50.3415 50.1937 51.9448 50.1554C52.4135 50.1671 52.8761 50.2646 53.3097 50.4429C53.9782 49.6245 54.732 49.198 55.571 49.1635ZM32.2107 67.9036C33.0095 67.6353 33.9721 67.3334 35.0984 66.998C37.5887 61.8917 40.9955 56.8334 45.3189 51.823C45.4034 51.7506 45.477 51.6664 45.5373 51.5729C48.1137 49.0332 49.8377 47.2621 50.7093 46.2596C51.761 45.0271 52.2868 44.0764 52.2868 43.4075C52.2868 42.5392 51.7935 41.9402 50.807 41.6105C50.5641 41.5124 50.3047 41.4616 50.0427 41.461C49.3892 41.5235 48.7663 41.7675 48.244 42.1654C48.5414 42.4196 48.7828 42.7327 48.953 43.0851C49.1231 43.4375 49.2183 43.8214 49.2324 44.2125C49.1979 45.2131 48.5648 46.4647 47.3331 47.9674L46.7067 48.646C46.4673 48.8971 46.2317 49.1558 45.9999 49.4223C45.7614 49.6896 45.5086 49.957 45.2356 50.2244C44.9626 50.4918 44.7011 50.7592 44.4483 51.0237C44.1954 51.2882 43.9397 51.5441 43.684 51.777C43.4283 52.0099 43.2041 52.2284 43.0059 52.4296C42.8076 52.6309 42.6237 52.8034 42.4599 52.9558L42.0519 53.3296L41.9427 53.4819C37.853 58.3658 34.609 63.1731 32.2107 67.9036ZM44.0977 43.1228C44.0977 42.7222 43.7884 42.7069 43.1696 43.0768L43.0059 43.2263C41.9159 44.064 40.5377 45.8005 38.8711 48.4361C38.2965 49.4366 37.9833 50.072 37.9488 50.3394L38.0034 50.3883C38.0781 50.3883 38.1959 50.3049 38.3597 50.1382L38.9832 49.4855C39.2389 49.2181 39.509 48.9105 39.7992 48.5338C40.0894 48.1572 40.3997 47.7834 40.7244 47.3838C41.0491 46.9841 41.3681 46.5845 41.6784 46.182C41.9887 45.7795 42.2847 45.4057 42.5749 45.0549C42.8651 44.7042 43.1179 44.3879 43.3363 44.1033C43.5547 43.8186 43.7357 43.5944 43.8794 43.4276L44.0977 43.1228ZM53.0999 64.7094C53.7035 64.7442 54.3048 64.8104 54.9015 64.9077C54.936 64.4745 55.3488 62.3565 56.1399 58.5537C56.6049 56.3987 56.8551 54.2028 56.887 51.9984C56.8506 51.3658 56.4857 50.9499 55.7923 50.7506C55.3555 50.6844 54.9303 50.9518 54.4849 51.5556C54.7711 51.9653 54.9246 52.4531 54.9245 52.9529V53.4532C54.0299 58.2662 53.4217 62.0221 53.0999 64.7208V64.7094ZM51.6633 80.9165C51.8124 81.0514 52.0083 81.1226 52.2092 81.1149C52.9017 81.0804 53.3355 80.7641 53.5166 80.1632C53.5227 80.1097 53.5414 80.0585 53.5712 80.0137V79.9131C53.6401 78.7113 53.7809 76.8769 53.9935 74.4101C54.1353 72.6102 54.2416 71.2934 54.3125 70.4596L52.5109 70.612C52.2657 73.3223 51.9841 76.761 51.6661 80.928L51.6633 80.9165Z" fill="#FF0000"/>
<path d="M90.3584 82.5983C87.8969 84.5707 84.8981 85.5607 81.362 85.5683C75.0693 85.5798 69.9347 83.2232 65.958 78.4984C62.5272 74.4387 60.6595 69.6248 60.3549 64.0566C60.3176 63.5563 60.2975 63.0905 60.2975 62.6564C60.2821 56.954 61.9257 52.3826 65.2281 48.942C65.351 48.8629 65.4613 48.766 65.5557 48.6545C68.7145 45.6126 72.7122 44.0868 77.549 44.0773C78.0797 44.0729 78.6029 44.2023 79.0704 44.4535C79.5379 44.7048 79.9347 45.0698 80.2241 45.5148C80.3522 45.6864 80.4629 45.8704 80.5546 46.064C81.2084 46.4516 81.7102 47.0511 81.9769 47.7632C84.8904 48.7216 87.4592 50.4831 89.6832 53.0477C93.0737 56.2046 95.2288 60.3323 96.1482 65.4309C96.4022 66.8159 96.5349 68.2205 96.5447 69.6286C96.5256 75.8983 94.4635 80.2215 90.3584 82.5983ZM78.6438 45.9145C78.314 45.718 77.9356 45.6184 77.5519 45.6269C71.5868 45.6404 67.1724 47.8667 64.3087 52.3059C62.4237 55.2443 61.487 58.6944 61.4985 62.6564C61.51 67.9236 63.0492 72.5718 66.116 76.6008C69.6177 81.1263 74.2073 83.5835 79.8851 83.9726C74.5349 83.0143 70.3446 80.1554 67.3142 75.3961C64.9135 71.6725 63.6503 67.329 63.6794 62.8979C63.6679 57.6651 65.2224 53.4617 68.3428 50.2876C71.0265 47.6137 74.4602 46.156 78.6438 45.9145ZM65.6907 56.4921C67.3918 53.824 69.1158 51.9206 70.8628 50.7821C72.1256 50.008 73.4567 49.3517 74.8395 48.8212C75.4141 48.5538 75.7302 48.3382 75.7647 48.1714C75.7648 48.0631 75.7264 47.9582 75.6564 47.8756C75.5864 47.7929 75.4894 47.7378 75.3825 47.72C73.8903 47.72 72.038 48.6411 69.8255 50.4831C68.0103 51.9578 66.507 53.7797 65.4034 55.8423C65.3266 56.033 65.2904 56.2377 65.2971 56.4432C65.3085 56.5512 65.346 56.6548 65.4063 56.7451C65.4781 56.7451 65.5499 56.6934 65.6246 56.5927C65.6423 56.5817 65.6573 56.567 65.6687 56.5497C65.6801 56.5323 65.6877 56.5126 65.6907 56.4921ZM78.1237 54.3156C77.3977 54.283 76.8144 53.6515 76.3738 52.4209C72.6998 54.3626 70.6511 57.6009 70.2278 62.136C70.1566 62.6996 70.1211 63.2671 70.1214 63.8352C70.1329 67.9026 71.3062 71.4486 73.6413 74.4732C75.94 77.3694 78.6534 78.83 81.7815 78.8549C84.764 78.8549 86.852 77.3675 88.0454 74.3927C88.6603 72.8229 88.9649 70.9387 88.9591 68.7402C88.9476 64.6383 87.8835 61.1393 85.7668 58.243C83.7976 55.6152 81.3936 54.2869 78.5547 54.2581H78.1726L78.1237 54.3156Z" fill="#FF0000"/>
<path d="M127.597 49.0111C128.833 49.0111 129.707 49.5929 130.22 50.7563C130.399 51.0966 130.497 51.4733 130.508 51.8575V52.3578C129.468 57.9931 128.806 62.2454 128.522 65.1148C129.942 65.6438 130.671 66.4258 130.709 67.4609C130.709 68.7259 130.093 69.5942 128.861 70.0658C128.596 70.1596 128.321 70.227 128.042 70.267C128.008 70.9341 127.938 71.9672 127.833 73.3664C127.62 76.069 127.444 78.2369 127.304 79.87C127.3 80.058 127.263 80.2437 127.195 80.4191C126.944 81.0061 126.537 81.5129 126.018 81.8845C125.499 82.256 124.889 82.4781 124.253 82.5266C123.978 82.5204 123.705 82.4876 123.436 82.4288C123.343 82.4015 123.252 82.3678 123.164 82.3282C122.864 82.7355 122.469 83.0632 122.014 83.2828C122.127 85.0078 122.186 86.6745 122.189 88.2826C122.119 89.0167 121.883 89.4001 121.483 89.4327C121.155 89.3982 120.991 88.8002 120.988 87.6328C120.988 86.6323 121.021 85.2484 121.086 83.4811C120.667 83.5175 120.245 83.5011 119.83 83.4323C118.193 82.9703 117.367 80.1556 117.354 74.988C117.354 73.6865 117.405 72.3189 117.509 70.8852C111.906 71.2302 106.741 71.741 102.016 72.4176H101.524C101.247 72.5145 100.956 72.565 100.662 72.5671C100.133 72.5809 99.6078 72.4659 99.1323 72.232C98.6569 71.9982 98.2453 71.6524 97.9327 71.2244C97.6313 70.896 97.4562 70.4711 97.4385 70.0255C97.4415 69.8692 97.4777 69.7153 97.5448 69.5741C99.8837 63.4769 103.173 57.304 107.412 51.0554C108.864 48.9381 110.426 46.8978 112.09 44.9428C113.94 42.8344 115.41 41.5808 116.5 41.1821C116.887 41.0509 117.293 40.9829 117.701 40.9809C118.192 41.0075 118.673 41.1255 119.121 41.3288C120.172 40.5256 121.153 40.1068 122.063 40.0723C122.678 40.0575 123.286 40.2006 123.83 40.488C124.374 40.7755 124.835 41.1976 125.169 41.714C125.47 42.1349 125.642 42.6345 125.663 43.1516C125.629 44.11 124.996 45.3444 123.764 46.8548C123.551 47.1255 123.324 47.3846 123.083 47.6311L122.238 48.4936C121.951 48.7955 121.664 49.1031 121.376 49.4223C121.089 49.7414 120.802 50.0318 120.514 50.2992C120.227 50.5666 119.94 50.834 119.698 51.1014C119.457 51.3687 119.227 51.593 119.046 51.777C118.865 51.961 118.701 52.1192 118.555 52.2543L118.391 52.4038C114.437 57.0462 111.266 61.7039 108.877 66.377C111.906 65.6124 114.987 65.0714 118.095 64.7583C118.518 61.482 119.166 58.2388 120.034 55.0518C121.046 51.7147 122.351 50.028 123.951 49.9916C124.42 50.0025 124.882 50.1 125.316 50.2791C126 49.4702 126.76 49.0476 127.597 49.0111ZM104.234 67.7656C105.033 67.4992 105.996 67.1973 107.125 66.86C109.615 61.7537 113.022 56.6954 117.345 51.685C117.43 51.6126 117.503 51.5284 117.563 51.4349C120.138 48.8952 121.862 47.1241 122.735 46.1216C123.787 44.8853 124.312 43.9336 124.31 43.2666C124.31 42.4041 123.816 41.8032 122.833 41.4696C122.59 41.3727 122.331 41.3229 122.069 41.323C121.415 41.3838 120.792 41.6269 120.27 42.0245C120.568 42.2792 120.809 42.5929 120.979 42.9458C121.149 43.2987 121.244 43.683 121.259 44.0745C121.224 45.0751 120.59 46.3267 119.356 47.8294C119.175 48.0307 118.966 48.255 118.73 48.5051C118.494 48.7552 118.259 49.014 118.023 49.2814C117.788 49.5488 117.535 49.8162 117.262 50.0836C116.989 50.3509 116.727 50.6183 116.472 50.8857C116.216 51.1531 115.963 51.4032 115.71 51.6361C115.457 51.869 115.23 52.0875 115.029 52.2888C114.828 52.49 114.65 52.6654 114.486 52.8149L114.078 53.1916L113.969 53.3411C109.868 58.2173 106.623 63.0255 104.234 67.7656V67.7656ZM116.124 42.9848C116.124 42.5852 115.814 42.568 115.196 42.936L115.032 43.0855C113.936 43.9135 112.558 45.6511 110.897 48.2981C110.323 49.2986 110.009 49.9341 109.975 50.1986L110.029 50.2503C110.101 50.2503 110.219 50.1669 110.383 49.9973C110.547 49.8277 110.756 49.6149 111.009 49.3475C111.262 49.0801 111.535 48.7725 111.825 48.3959C112.116 48.0192 112.423 47.6426 112.751 47.2458C113.078 46.849 113.394 46.4436 113.702 46.044C114.009 45.6443 114.308 45.2677 114.601 44.9169C114.894 44.5662 115.144 44.247 115.362 43.9653C115.581 43.6835 115.759 43.4564 115.905 43.2867L116.124 42.9848ZM125.126 64.5714C125.729 64.6057 126.331 64.6709 126.928 64.7669C126.962 64.3337 127.375 62.2157 128.166 58.4128C128.628 56.2585 128.875 54.0636 128.904 51.8604C128.868 51.2279 128.503 50.8119 127.81 50.6126C127.373 50.5465 126.948 50.8138 126.502 51.4147C126.788 51.8256 126.942 52.3142 126.942 52.8149V53.3152C126.051 58.1167 125.446 61.8687 125.126 64.5714V64.5714ZM123.689 80.7785C123.839 80.9121 124.035 80.9831 124.235 80.9769C124.529 80.9904 124.819 80.9032 125.057 80.7296C125.294 80.5561 125.466 80.3066 125.543 80.0224C125.55 79.9691 125.568 79.9181 125.597 79.8729V79.7722C125.666 78.5742 125.807 76.7409 126.02 74.2721C126.161 72.4703 126.268 71.1526 126.339 70.3188L124.537 70.474C124.292 73.169 124.01 76.6038 123.692 80.7785H123.689Z" fill="#FF0000"/>
</svg>
