<svg width="365" height="396" viewBox="0 0 365 396" fill="none" xmlns="http://www.w3.org/2000/svg">
<path d="M343.028 232.362C343.036 203.945 334.896 176.121 319.574 152.189C304.251 128.257 282.389 109.22 256.577 97.3335C257.91 89.1388 258.545 80.8459 258.476 72.5439C258.881 52.2039 253.798 33.9656 235.753 23.8616C200.701 4.2339 186.28 25.6203 187.704 41.625C187.521 43.678 187.594 45.7459 187.924 47.7806C188.038 48.449 188.153 49.1612 188.267 49.8999C190.114 67.4347 189.753 60.4524 191.248 81.9092V83.7647C153.006 84.5729 116.549 100.095 89.4609 127.101C62.373 154.107 46.7408 190.517 45.8168 228.756L41.4199 229.196C41.0242 229.302 40.6373 229.433 40.2504 229.574C31.1048 232.881 24.3776 244.005 24.3776 257.222C24.3625 262.127 25.35 266.984 27.2796 271.494L29.9177 278.828L34.4817 281.466C36.2653 283 38.3162 284.192 40.5318 284.984V284.984C42.2808 285.599 44.1211 285.914 45.9751 285.916C46.5863 285.909 47.1968 285.87 47.8042 285.801L51.1722 286.171L51.6207 286.25L56.2462 287.252C67.2468 314.901 86.2898 338.613 110.912 355.322C135.535 372.031 164.604 380.967 194.361 380.976C200.83 380.977 207.292 380.56 213.707 379.728C216.368 380.627 219.166 381.046 221.973 380.968C223.987 380.906 226.001 380.871 227.997 380.827C263.682 382.463 275.484 369.325 280.874 357.805C282.422 354.824 283.512 352.529 284.321 350.682C302.58 336.833 317.382 318.943 327.568 298.415C337.753 277.887 343.045 255.278 343.028 232.362V232.362Z" stroke="white" stroke-width="30" stroke-miterlimit="10"/>
<path d="M191.811 381C273.898 381 340.443 314.455 340.443 232.368C340.443 150.281 273.898 83.7356 191.811 83.7356C109.723 83.7356 43.1785 150.281 43.1785 232.368C43.1785 314.455 109.723 381 191.811 381Z" fill="#FFFB00"/>
<path d="M171.638 326.268C171.796 330.999 165.887 333.681 161.965 330.664C146.365 318.353 111.111 296.764 45.8872 285.719C45.0348 285.853 44.1734 285.921 43.3106 285.922C31.4038 285.922 21.7571 273.083 21.7571 257.254C21.7571 244.063 28.4843 232.913 37.5859 229.606C37.9728 229.466 38.3597 229.334 38.7554 229.228C40.7164 229.044 42.6599 228.859 44.5857 228.648C100.171 222.818 142.513 207.859 159.309 201.176C163.099 199.664 167.338 202.179 167.47 206.03L171.638 326.268Z" fill="#05C323"/>
<path d="M147.358 320.965C171.981 330.542 152.89 323.41 162.009 330.638C165.887 333.69 171.796 331.008 171.682 326.241L167.558 205.969C167.426 202.117 163.161 199.602 159.397 201.115C149.847 204.914 167.496 201.229 143.691 207.174C120.828 227.786 106.045 240.027 126.289 264.333C134.111 273.808 139.54 285.024 142.117 297.037L147.358 320.965Z" fill="#04AE1F"/>
<path d="M24.668 271.491C24.668 271.491 37.8586 280.848 62.5515 279.951C87.2444 279.054 100.532 295.217 121.734 298.805C142.935 302.393 130.694 266.646 130.694 266.646L157.076 323.973L114.98 304.459L78.6617 292.658L48.7629 286.159L37.9465 284.955L27.3413 278.799L24.7031 271.465" fill="#04AE1F"/>
<path d="M171.638 326.268C171.796 330.999 165.887 333.681 161.965 330.664C146.365 318.353 111.111 296.764 45.8872 285.719C45.0348 285.853 44.1734 285.921 43.3106 285.922C31.4038 285.922 21.7571 273.083 21.7571 257.254C21.7571 244.063 28.4843 232.913 37.5859 229.606C37.9728 229.466 38.3597 229.334 38.7554 229.228C40.7164 229.044 42.6599 228.859 44.5857 228.648C100.171 222.818 142.513 207.859 159.309 201.176C163.099 199.664 167.338 202.179 167.47 206.03L171.638 326.268Z" stroke="black" stroke-width="5.17" stroke-miterlimit="10"/>
<path d="M157.462 265.934C141.774 341.507 182.639 346.449 182.639 346.449C182.639 346.449 193.42 370.448 213.628 378.107C281.657 386.188 278.28 348.428 284.348 341.059C310.615 326.241 287.716 311.424 315.337 292.561C334.868 271.008 303.21 259.558 313.314 244.064C359.789 169.317 267.508 161.886 267.508 161.886C267.508 161.886 239.218 165.254 247.282 128.883C255.346 92.5119 266.822 45.3421 233.142 26.5059C196.797 6.14832 182.621 29.8739 185.321 46.0368C188.021 62.1998 192.725 98.5708 181.953 135.619C135.926 193.781 148.387 244.345 157.445 265.934H157.462Z" fill="#05C323"/>
<path d="M198.749 22.1001C198.749 22.1001 188.408 55.578 198.749 87.0069C198.749 87.0069 200.587 121.883 191.802 127.722C183.017 133.561 183.888 130.175 183.888 130.175C183.888 130.175 190.228 104.48 188.663 81.9329C187.168 60.4761 187.528 67.4583 185.691 49.8972C183.853 32.5295 198.749 22.1001 198.749 22.1001Z" fill="#04AE1F"/>
<path d="M234.962 137.439C234.962 137.439 216.565 168.587 275.642 177.117C300.59 181.162 327.982 191.89 311.819 215.712C295.657 239.535 289.756 260.64 309.093 277.48C313.912 281.296 292.385 296.712 288.921 316.471C282.483 336.829 277.242 327.701 271.553 338.174C266.03 348.358 224.902 351.189 179.948 326.637C178.56 325.883 177.344 324.85 176.375 323.603C175.407 322.356 174.707 320.922 174.32 319.391C172.816 313.473 171.55 303.36 176.563 294.953C177.362 293.586 177.613 291.967 177.263 290.422C176.914 288.878 175.991 287.524 174.681 286.634C167.874 282.141 157.753 274.789 155.704 269.618C155.704 269.618 135.258 334.129 182.085 347.531C182.191 347.601 193.086 381.66 216.741 380.947C240.397 380.235 263.269 381.827 275.659 357.784C288.05 333.742 280.215 346.514 296.123 332.136C307.308 307.663 301.399 310.152 301.399 310.152L322.416 284.21L318.573 269.17C318.573 269.17 309.331 251.099 309.111 250.536C308.891 249.973 324.887 214.385 324.887 214.385C324.887 214.385 322.864 193.06 322.416 192.163C321.967 191.266 309.137 175.094 309.137 175.094L270.972 166.793L253.042 163.873L243.984 134.37C243.984 134.37 246.913 120.696 247.036 120.151C247.159 119.605 247.432 111.111 247.432 111.111L234.962 137.439Z" fill="#04AE1F"/>
<path d="M202.882 113.538C202.882 113.538 235.419 126.596 248.566 114.813C248.566 114.813 239.886 122.525 243.817 137.527C243.817 137.527 221.121 140.939 202.882 113.538Z" fill="#04AE1F"/>
<path d="M157.462 267.692C141.774 343.266 182.639 348.199 182.639 348.199C182.639 348.199 193.42 372.206 213.628 379.857C281.657 387.947 278.289 350.222 284.348 342.818C310.615 328 287.716 313.174 315.337 294.32C334.868 272.766 303.21 261.317 313.314 245.822C359.789 171.075 267.508 163.645 267.508 163.645C267.508 163.645 239.218 167.013 247.282 130.642C255.346 94.2706 266.822 47.1008 233.142 28.2558C196.797 7.90703 182.621 31.6238 185.321 47.7955C188.021 63.9673 192.725 100.329 181.953 137.378C135.926 195.54 148.387 246.104 157.445 267.692H157.462Z" stroke="black" stroke-width="5" stroke-miterlimit="10"/>
<path d="M198.811 319.241C198.811 319.241 169.853 343.345 195.109 366.657" stroke="black" stroke-width="5" stroke-miterlimit="10"/>
<path d="M254.036 347.548C254.036 347.548 196.999 347.548 186.79 321.95C176.58 296.351 207.56 277.497 207.56 277.497" fill="#05C323"/>
<path d="M254.036 347.548C254.036 347.548 196.999 347.548 186.79 321.95C176.58 296.351 207.56 277.497 207.56 277.497" stroke="black" stroke-width="5" stroke-miterlimit="10"/>
<path d="M273.575 305.092C273.575 305.092 192.075 309.814 187.396 276.803C182.718 243.791 208.95 228.305 208.95 228.305" fill="#05C323"/>
<path d="M273.575 305.092C273.575 305.092 192.075 309.814 187.396 276.803C182.718 243.791 208.95 228.305 208.95 228.305" stroke="black" stroke-width="5" stroke-miterlimit="10"/>
<path d="M242.586 181.83C242.586 181.83 196.111 179.816 193.42 203.384C190.729 226.951 192.224 227.558 192.224 227.558C192.224 227.558 193.156 243.8 217.198 247.845C241.241 251.89 278.289 247.845 278.289 247.845" fill="#05C323"/>
<path d="M242.586 181.83C242.586 181.83 196.111 179.816 193.42 203.384C190.729 226.951 192.224 227.558 192.224 227.558C192.224 227.558 193.156 243.8 217.198 247.845C241.241 251.89 278.289 247.845 278.289 247.845" stroke="black" stroke-width="5" stroke-miterlimit="10"/>
<path d="M273.127 228.305C273.127 228.305 299.614 227.426 311.74 220.936Z" fill="white"/>
<path d="M273.127 228.305C285.315 223.389 298.84 222.466 311.74 220.936C303.201 229.87 284.55 231.884 273.127 228.305Z" fill="black"/>
<path d="M278.28 293.643C286.651 292.447 295.129 291.682 303.175 288.92C304.333 288.546 305.467 288.1 306.569 287.584C299.156 293.616 287.496 294.759 278.28 293.643Z" fill="black"/>
<path d="M254.036 335.404C254.036 335.404 264.817 337.427 273.575 335.404Z" fill="white"/>
<path d="M254.036 335.404C258.573 335.237 264.113 335.466 268.66 335.404C270.278 335.404 271.887 335.351 273.575 335.404C270.482 336.692 267.145 337.292 263.797 337.163C260.464 337.161 257.159 336.565 254.036 335.404V335.404Z" fill="black"/>
<path d="M175.929 282.712C162.545 276.662 154.516 264.685 149.777 251.16L153.989 249.911C157.155 263.41 163.662 275.51 175.929 282.712Z" fill="black"/>
</svg>
