<svg width="349" height="397" viewBox="0 0 349 397" fill="none" xmlns="http://www.w3.org/2000/svg">
<path d="M333.955 232.387C333.962 203.951 325.817 176.109 310.484 152.161C295.152 128.213 273.275 109.163 247.446 97.2686C248.779 89.0685 249.415 80.77 249.346 72.4624C249.751 52.1089 244.665 33.8585 226.608 23.7477C191.533 4.10691 177.101 25.5076 178.527 41.523C178.343 43.5773 178.417 45.6466 178.747 47.6827C178.861 48.3515 178.976 49.0642 179.09 49.8034C180.938 67.3499 180.577 60.363 182.073 81.8341V83.6908C143.806 84.4995 107.324 100.032 80.2182 127.056C53.1122 154.08 37.4696 190.515 36.545 228.779L32.1452 229.219C31.7492 229.325 31.362 229.457 30.9748 229.597C21.8232 232.906 15.0915 244.038 15.0915 257.263C15.0763 262.172 16.0645 267.032 17.9954 271.545L20.6353 278.884L25.2023 281.524C26.9871 283.059 29.0394 284.252 31.2564 285.044V285.044C33.0066 285.659 34.8481 285.975 36.7034 285.977C37.315 285.97 37.9259 285.931 38.5337 285.862L41.904 286.232L42.3527 286.311L46.9813 287.314C57.9892 314.981 77.045 338.709 101.684 355.429C126.323 372.149 155.412 381.092 185.188 381.101C191.662 381.101 198.128 380.684 204.548 379.851C207.21 380.751 210.01 381.171 212.819 381.092C214.834 381.03 216.849 380.995 218.847 380.951C254.556 382.588 266.365 369.441 271.759 357.914C273.308 354.931 274.399 352.634 275.209 350.786C293.479 336.928 308.291 319.026 318.484 298.484C328.676 277.942 333.972 255.319 333.955 232.387V232.387Z" stroke="white" stroke-width="30" stroke-miterlimit="10"/>
<path d="M182.636 381.124C264.778 381.124 331.368 314.535 331.368 232.393C331.368 150.251 264.778 83.6616 182.636 83.6616C100.494 83.6616 33.905 150.251 33.905 232.393C33.905 314.535 100.494 381.124 182.636 381.124Z" fill="#FFFB00"/>
<path d="M162.45 326.355C162.609 331.09 156.695 333.774 152.771 330.755C137.16 318.436 101.882 296.833 36.6154 285.78C35.7625 285.914 34.9005 285.982 34.0371 285.983C22.1224 285.983 12.4692 273.135 12.4692 257.296C12.4692 244.096 19.201 232.939 28.3086 229.63C28.6958 229.489 29.0829 229.357 29.4789 229.252C31.4412 229.067 33.386 228.882 35.3131 228.671C90.9355 222.837 133.306 207.868 150.113 201.181C153.906 199.667 158.147 202.184 158.279 206.038L162.45 326.355Z" fill="#05C323"/>
<path d="M138.154 321.05C162.793 330.632 143.689 323.496 152.815 330.729C156.695 333.783 162.609 331.099 162.494 326.329L158.367 205.977C158.235 202.123 153.967 199.606 150.201 201.119C140.645 204.921 158.306 201.234 134.485 207.182C111.606 227.809 96.8138 240.058 117.071 264.38C124.898 273.86 130.331 285.085 132.91 297.106L138.154 321.05Z" fill="#04AE1F"/>
<path d="M15.3821 271.543C15.3821 271.543 28.5815 280.905 53.2909 280.008C78.0002 279.11 91.2965 295.284 112.512 298.874C133.728 302.465 121.479 266.694 121.479 266.694L147.878 324.059L105.754 304.533L69.4118 292.723L39.4931 286.22L28.6695 285.015L18.0572 278.855L15.4173 271.516" fill="#04AE1F"/>
<path d="M162.45 326.355C162.609 331.09 156.695 333.774 152.771 330.755C137.16 318.436 101.882 296.833 36.6154 285.78C35.7625 285.914 34.9005 285.982 34.0371 285.983C22.1224 285.983 12.4692 273.135 12.4692 257.296C12.4692 244.096 19.201 232.939 28.3086 229.63C28.6958 229.489 29.0829 229.357 29.4789 229.252C31.4412 229.067 33.386 228.882 35.3131 228.671C90.9355 222.837 133.306 207.868 150.113 201.181C153.906 199.667 158.147 202.184 158.279 206.038L162.45 326.355Z" stroke="black" stroke-width="5.17" stroke-miterlimit="10"/>
<path d="M148.265 265.981C132.567 341.605 173.458 346.551 173.458 346.551C173.458 346.551 184.247 370.565 204.468 378.229C272.542 386.316 269.163 348.531 275.235 341.157C301.519 326.329 278.605 311.502 306.245 292.627C325.789 271.059 294.11 259.602 304.221 244.097C350.727 169.3 258.384 161.864 258.384 161.864C258.384 161.864 230.075 165.234 238.145 128.839C246.214 92.4437 257.697 45.2425 223.995 26.3937C187.626 6.02256 173.441 29.764 176.142 45.9377C178.844 62.1114 183.552 98.5067 172.772 135.58C126.715 193.78 139.184 244.378 148.247 265.981H148.265Z" fill="#05C323"/>
<path d="M189.58 21.9851C189.58 21.9851 179.231 55.4853 189.58 86.9352C189.58 86.9352 191.419 121.835 182.628 127.677C173.837 133.52 174.708 130.133 174.708 130.133C174.708 130.133 181.053 104.42 179.486 81.8578C177.99 60.3867 178.351 67.3736 176.512 49.8007C174.673 32.4215 189.58 21.9851 189.58 21.9851Z" fill="#04AE1F"/>
<path d="M225.816 137.401C225.816 137.401 207.408 168.569 266.523 177.105C291.488 181.153 318.899 191.888 302.725 215.727C286.551 239.565 280.647 260.684 299.997 277.535C304.819 281.354 283.278 296.78 279.811 316.553C273.37 336.924 268.125 327.79 262.432 338.27C256.905 348.46 215.75 351.294 170.766 326.725C169.377 325.971 168.16 324.937 167.191 323.689C166.221 322.441 165.521 321.006 165.134 319.474C163.629 313.552 162.362 303.432 167.378 295.02C168.178 293.652 168.429 292.032 168.079 290.486C167.73 288.941 166.806 287.586 165.495 286.696C158.684 282.199 148.556 274.842 146.505 269.668C146.505 269.668 126.046 334.222 172.904 347.633C173.01 347.703 183.913 381.784 207.584 381.072C231.255 380.359 254.142 381.952 266.541 357.893C278.94 333.835 271.099 346.615 287.018 332.228C298.211 307.738 292.298 310.229 292.298 310.229L313.329 284.27L309.483 269.219C309.483 269.219 300.235 251.136 300.015 250.573C299.795 250.01 315.801 214.398 315.801 214.398C315.801 214.398 313.777 193.059 313.329 192.161C312.88 191.264 300.041 175.081 300.041 175.081L261.851 166.774L243.908 163.853L234.845 134.33C234.845 134.33 237.775 120.647 237.898 120.101C238.021 119.555 238.294 111.055 238.294 111.055L225.816 137.401Z" fill="#04AE1F"/>
<path d="M193.715 113.484C193.715 113.484 226.274 126.551 239.429 114.76C239.429 114.76 230.744 122.477 234.678 137.489C234.678 137.489 211.966 140.903 193.715 113.484Z" fill="#04AE1F"/>
<path d="M148.265 267.741C132.567 343.365 173.458 348.302 173.458 348.302C173.458 348.302 184.247 372.325 204.468 379.98C272.542 388.076 269.172 350.326 275.235 342.916C301.519 328.089 278.605 313.253 306.245 294.386C325.789 272.819 294.11 261.361 304.221 245.857C350.727 171.06 258.384 163.624 258.384 163.624C258.384 163.624 230.075 166.994 238.145 130.599C246.214 94.2037 257.697 47.0024 223.995 28.1448C187.626 7.78249 173.441 31.5151 176.142 47.6976C178.844 63.8801 183.552 100.267 172.772 137.339C126.715 195.54 139.184 246.138 148.247 267.741H148.265Z" stroke="black" stroke-width="5" stroke-miterlimit="10"/>
<path d="M189.641 319.325C189.641 319.325 160.664 343.444 185.936 366.772" stroke="black" stroke-width="5" stroke-miterlimit="10"/>
<path d="M244.903 347.651C244.903 347.651 187.828 347.651 177.612 322.035C167.395 296.419 198.397 277.553 198.397 277.553" fill="#05C323"/>
<path d="M244.903 347.651C244.903 347.651 187.828 347.651 177.612 322.035C167.395 296.419 198.397 277.553 198.397 277.553" stroke="black" stroke-width="5" stroke-miterlimit="10"/>
<path d="M264.455 305.166C264.455 305.166 182.9 309.891 178.219 276.858C173.537 243.824 199.787 228.328 199.787 228.328" fill="#05C323"/>
<path d="M264.455 305.166C264.455 305.166 182.9 309.891 178.219 276.858C173.537 243.824 199.787 228.328 199.787 228.328" stroke="black" stroke-width="5" stroke-miterlimit="10"/>
<path d="M233.446 181.822C233.446 181.822 186.94 179.807 184.247 203.39C181.554 226.973 183.05 227.58 183.05 227.58C183.05 227.58 183.983 243.833 208.041 247.881C232.099 251.928 269.172 247.881 269.172 247.881" fill="#05C323"/>
<path d="M233.446 181.822C233.446 181.822 186.94 179.807 184.247 203.39C181.554 226.973 183.05 227.58 183.05 227.58C183.05 227.58 183.983 243.833 208.041 247.881C232.099 251.928 269.172 247.881 269.172 247.881" stroke="black" stroke-width="5" stroke-miterlimit="10"/>
<path d="M264.007 228.327C264.007 228.327 290.511 227.447 302.646 220.953Z" fill="white"/>
<path d="M264.007 228.327C276.203 223.408 289.737 222.485 302.646 220.953C294.101 229.894 275.437 231.909 264.007 228.327Z" fill="black"/>
<path d="M269.163 293.709C277.54 292.512 286.023 291.746 294.075 288.983C295.234 288.609 296.368 288.162 297.472 287.646C290.053 293.682 278.385 294.826 269.163 293.709Z" fill="black"/>
<path d="M244.903 335.498C244.903 335.498 255.691 337.522 264.456 335.498Z" fill="white"/>
<path d="M244.903 335.498C249.443 335.331 254.987 335.56 259.537 335.498C261.156 335.498 262.766 335.445 264.456 335.498C261.36 336.787 258.021 337.387 254.67 337.258C251.336 337.256 248.028 336.66 244.903 335.498V335.498Z" fill="black"/>
<path d="M166.744 282.771C153.351 276.717 145.317 264.732 140.574 251.198L144.789 249.948C147.957 263.456 154.469 275.564 166.744 282.771Z" fill="black"/>
</svg>
