<svg width="350" height="330" viewBox="0 0 350 330" fill="none" xmlns="http://www.w3.org/2000/svg">
<path d="M334.426 165.75C334.443 188.667 329.152 211.278 318.967 231.808C308.782 252.338 293.98 270.23 275.722 284.081C274.93 285.893 273.813 288.214 272.275 291.204C266.911 302.723 255.084 315.825 219.4 314.225C217.395 314.26 215.388 314.307 213.377 314.366C210.57 314.444 207.771 314.024 205.111 313.126C198.696 313.957 192.234 314.374 185.766 314.374C156 314.368 126.921 305.426 102.294 288.708C77.6663 271.99 58.624 248.264 47.6317 220.602L42.9624 219.6L42.5227 219.521L39.1549 219.143C38.5479 219.216 37.9373 219.254 37.3259 219.257C35.4724 219.259 33.632 218.946 31.8828 218.334C29.6674 217.543 27.6166 216.35 25.833 214.816L21.2693 212.178L18.6313 204.836C16.7139 200.324 15.7384 195.467 15.7647 190.564C15.7647 177.374 22.4916 166.224 31.5927 162.918C31.9796 162.777 32.3665 162.646 32.7622 162.54C34.2306 162.408 35.6815 162.259 37.1588 162.109C37.6381 122.696 53.7545 85.0877 81.9626 57.5574C110.171 30.027 148.16 14.8298 187.573 15.3091C226.986 15.7883 264.594 31.9047 292.125 60.1129C319.655 88.321 334.852 126.31 334.373 165.723L334.426 165.75Z" stroke="white" stroke-width="30" stroke-miterlimit="10"/>
<path d="M186.003 314.374C268.086 314.374 334.628 247.833 334.628 165.749C334.628 83.6663 268.086 17.1248 186.003 17.1248C103.92 17.1248 37.3782 83.6663 37.3782 165.749C37.3782 247.833 103.92 314.374 186.003 314.374Z" fill="#FFFB00"/>
<path d="M165.84 259.609C165.998 264.34 160.089 267.022 156.211 264.006C140.612 251.695 105.359 230.108 40.1394 219.063C39.2871 219.197 38.4257 219.265 37.5629 219.266C25.6568 219.266 16.0105 206.427 16.0105 190.599C16.0105 177.409 22.7374 166.259 31.8824 162.953C32.2693 162.812 32.6562 162.681 33.0519 162.575C35.0129 162.39 36.9562 162.206 38.8819 161.995C94.4645 156.165 136.804 141.207 153.6 134.524C157.39 133.012 161.628 135.527 161.76 139.378L165.84 259.609Z" fill="#666666"/>
<path d="M141.562 254.334C166.183 263.91 147.093 256.787 156.212 264.006C160.089 267.058 165.999 264.376 165.84 259.61L161.76 139.37C161.628 135.518 157.364 133.003 153.6 134.516C144.05 138.315 161.69 134.63 137.886 140.583C115.024 161.186 100.251 173.435 120.484 197.74C128.309 207.209 133.738 218.423 136.312 230.433L141.562 254.334Z" fill="#4D4D4D"/>
<path d="M18.8777 204.862C18.8777 204.862 32.0677 214.218 56.7593 213.321C81.451 212.424 94.7289 228.587 115.93 232.183C137.13 235.78 124.899 200 124.899 200L151.279 257.323L109.176 237.846L72.8599 226.028L42.9626 219.538L32.1556 218.334L21.5421 212.178L18.9041 204.845" fill="#4D4D4D"/>
<path d="M165.84 259.609C165.998 264.34 160.089 267.022 156.211 264.006C140.612 251.695 105.359 230.108 40.1394 219.063C39.2871 219.197 38.4257 219.265 37.5629 219.266C25.6568 219.266 16.0105 206.427 16.0105 190.599C16.0105 177.409 22.7374 166.259 31.8824 162.953C32.2693 162.812 32.6562 162.681 33.0519 162.575C35.0129 162.39 36.9562 162.206 38.8819 161.995C94.4645 156.165 136.804 141.207 153.6 134.524C157.39 133.012 161.628 135.527 161.76 139.378L165.84 259.609Z" stroke="black" stroke-width="3.82968" stroke-miterlimit="10"/>
<path d="M151.664 201.064C135.977 276.634 176.84 281.593 176.84 281.593C176.84 281.593 187.612 305.599 207.819 313.249C275.844 321.33 272.476 283.615 278.543 276.203C304.809 261.386 281.911 246.569 309.522 227.708C329.052 206.155 297.396 194.706 307.5 179.212C353.981 104.469 261.704 97.0476 261.704 97.0476C261.704 97.0476 246.377 97.2586 239.791 73.0155C234.797 55.9125 189.801 55.4288 176.163 70.7732C161.619 89.16 152.913 106.773 148.103 122.962C137.683 157.994 145.465 186.273 151.664 201.081V201.064Z" fill="#666666"/>
<path d="M231.79 70.8166C231.79 70.8166 213.403 101.963 272.468 110.492C297.423 114.537 324.815 125.274 308.653 149.086C292.49 172.898 286.581 194.011 305.927 210.85C310.745 214.667 289.219 230.081 285.746 249.84C279.309 270.196 274.077 261.069 268.388 271.542C262.857 281.724 221.731 284.556 176.779 260.005C175.394 259.25 174.18 258.217 173.212 256.972C172.244 255.727 171.542 254.296 171.151 252.768C169.657 246.841 168.381 236.729 173.402 228.314C174.218 226.954 174.478 225.332 174.128 223.786C173.777 222.239 172.843 220.888 171.521 220.013C164.723 215.519 154.585 208.168 152.536 202.998C152.536 202.998 132.1 267.506 178.916 280.898C179.021 280.977 189.908 315.025 213.57 314.356C237.233 313.688 260.096 315.192 272.486 291.195C284.875 267.198 269.452 285.848 285.35 271.471C296.544 247 294.97 241.838 294.97 241.838L315.388 220.919V202.549C315.388 202.549 306.155 184.479 305.935 183.907C305.716 183.336 321.675 147.767 321.675 147.767C321.675 147.767 319.662 126.434 319.213 125.537C318.765 124.64 305.935 108.478 305.935 108.478L267.764 100.169L251.988 94.6992L239.792 72.9973C239.792 72.9973 235.73 67.6158 235.853 67.0618C235.976 66.5078 224.377 63.4126 224.377 63.4126L231.79 70.8166Z" fill="#4D4D4D"/>
<path d="M151.665 201.064C135.978 276.634 176.841 281.593 176.841 281.593C176.841 281.593 187.613 305.599 207.82 313.249C275.845 321.33 272.477 283.615 278.544 276.203C304.81 261.386 281.912 246.569 309.523 227.708C329.053 206.155 297.397 194.706 307.501 179.212C353.982 104.469 261.705 97.0476 261.705 97.0476C261.705 97.0476 246.378 97.2586 239.792 73.0155C234.798 55.9125 189.802 55.4288 176.164 70.7732C161.62 89.16 152.914 106.773 148.104 122.962C137.684 157.994 145.466 186.273 151.665 201.081V201.064Z" stroke="black" stroke-width="3.70375" stroke-miterlimit="10"/>
<path d="M193.003 252.575C193.003 252.575 164.047 276.721 189.301 300.059" stroke="black" stroke-width="3.70375" stroke-miterlimit="10"/>
<path d="M248.234 280.898C248.234 280.898 191.2 280.898 180.991 255.31C170.782 229.721 201.761 210.851 201.761 210.851" fill="#666666"/>
<path d="M248.234 280.898C248.234 280.898 191.2 280.898 180.991 255.31C170.782 229.721 201.761 210.851 201.761 210.851" stroke="black" stroke-width="3.70375" stroke-miterlimit="10"/>
<path d="M267.764 238.506C267.764 238.506 186.267 243.219 181.589 210.218C176.911 177.216 203.142 161.722 203.142 161.722" fill="#666666"/>
<path d="M267.764 238.506C267.764 238.506 186.267 243.219 181.589 210.218C176.911 177.216 203.142 161.722 203.142 161.722" stroke="black" stroke-width="3.70375" stroke-miterlimit="10"/>
<path d="M236.785 115.215C236.785 115.215 190.313 113.192 187.613 136.767C184.913 160.342 186.417 160.94 186.417 160.94C186.417 160.94 187.349 177.172 211.39 181.217C235.431 185.262 272.477 181.217 272.477 181.217" fill="#666666"/>
<path d="M236.785 115.215C236.785 115.215 190.313 113.192 187.613 136.767C184.913 160.342 186.417 160.94 186.417 160.94C186.417 160.94 187.349 177.172 211.39 181.217C235.431 185.262 272.477 181.217 272.477 181.217" stroke="black" stroke-width="3.70375" stroke-miterlimit="10"/>
<path d="M267.315 161.687C267.315 161.687 293.809 160.764 305.935 154.319Z" fill="white"/>
<path d="M267.315 161.687C279.512 156.763 293.027 155.84 305.935 154.319C297.397 163.253 278.747 165.257 267.315 161.687Z" fill="black"/>
<path d="M272.468 227.022C280.84 225.817 289.325 225.052 297.371 222.3C298.527 221.924 299.658 221.474 300.756 220.954C293.344 226.987 281.684 228.138 272.468 227.022Z" fill="black"/>
<path d="M248.234 268.772C248.234 268.772 259.014 270.794 267.764 268.772Z" fill="white"/>
<path d="M248.234 268.772C252.771 268.614 258.302 268.842 262.857 268.825C264.475 268.825 266.084 268.763 267.764 268.772C264.675 270.064 261.34 270.665 257.994 270.531C254.663 270.526 251.358 269.93 248.234 268.772V268.772Z" fill="black"/>
<path d="M170.131 216.092C156.739 210.042 148.711 198.056 143.971 184.541L148.192 183.284C151.357 196.781 157.864 208.881 170.131 216.092Z" fill="black"/>
<path d="M162.455 90.5933C148.781 111.099 151.903 109.473 142.432 124.782C132.962 140.091 131.652 173.945 138.387 193.484C142.986 206.832 158.04 211.51 167.115 213.137C167.115 213.137 181 215.441 181.897 211.985C182.794 208.529 174.862 193.334 189.811 173.875" fill="#666666"/>
<path d="M138.581 136.072C138.581 136.072 177.728 65.7259 177.201 75.1611C176.321 90.312 174.132 89.5294 172.4 94.0228C170.667 98.5162 155.279 112.559 153.758 128.044C153.415 131.368 151.999 135.844 150.021 140.355C142.88 156.913 129.022 173.945 138.589 136.064" fill="#4D4D4D"/>
<path d="M162.455 90.5933C148.781 111.099 151.903 109.473 142.432 124.782C132.962 140.091 131.652 173.945 138.387 193.484C142.986 206.832 158.04 211.51 167.115 213.137C167.115 213.137 181 215.441 181.897 211.985C182.794 208.529 174.862 193.334 189.811 173.875" stroke="black" stroke-width="3.70375" stroke-miterlimit="10"/>
<path d="M145.352 136.503C143.593 145.393 176.717 159.489 180.991 152.287C180.991 152.287 186.364 172.169 187.709 171.923C189.054 171.676 171.389 182.167 179.795 210.895C179.795 210.895 145.431 214.931 140.128 190.828C135.916 171.729 135.292 147.679 145.352 136.503Z" fill="#4D4D4D"/>
<path d="M143.004 175.968C143.004 175.968 161.989 157.563 178.96 175.968" stroke="black" stroke-width="3.70375" stroke-miterlimit="10"/>
</svg>
