<svg width="365" height="370" viewBox="0 0 365 370" fill="none" xmlns="http://www.w3.org/2000/svg">
<path d="M339.664 206.404C339.681 229.188 334.421 251.666 324.296 272.076C314.17 292.486 299.455 310.274 281.303 324.044C280.516 325.845 279.406 328.153 277.876 331.125C272.544 342.577 260.786 355.602 225.311 354.011C223.318 354.046 221.322 354.093 219.323 354.151C216.532 354.229 213.75 353.812 211.105 352.918C204.728 353.745 198.304 354.16 191.873 354.16C162.281 354.153 133.372 345.264 108.889 328.644C84.4054 312.023 65.4743 288.436 54.5462 260.936L49.9043 259.939L49.4672 259.861L46.119 259.485C45.5156 259.558 44.9085 259.596 44.3007 259.598C42.4581 259.6 40.6284 259.29 38.8894 258.681C36.687 257.894 34.6482 256.709 32.875 255.184L28.3379 252.561L25.7154 245.262C23.8092 240.776 22.8394 235.948 22.8655 231.074C22.8655 217.961 29.5531 206.876 38.601 203.589C38.9856 203.449 39.3702 203.318 39.7636 203.213C41.2235 203.082 42.6659 202.933 44.1346 202.785C44.611 163.602 60.6333 126.213 88.6765 98.844C116.72 71.4746 154.487 56.3663 193.67 56.8427C232.852 57.3192 270.241 73.3414 297.61 101.385C324.98 129.428 340.088 167.195 339.612 206.378L339.664 206.404Z" stroke="white" stroke-width="30" stroke-miterlimit="10"/>
<path d="M192.109 354.159C273.713 354.159 339.865 288.007 339.865 206.403C339.865 124.8 273.713 58.6475 192.109 58.6475C110.506 58.6475 44.3533 124.8 44.3533 206.403C44.3533 288.007 110.506 354.159 192.109 354.159Z" fill="#FFFB00"/>
<path d="M172.064 299.715C172.221 304.418 166.347 307.084 162.491 304.086C146.983 291.847 111.937 270.386 47.0979 259.406C46.2506 259.539 45.3943 259.606 44.5366 259.607C32.7 259.607 23.1101 246.844 23.1101 231.108C23.1101 217.995 29.7977 206.911 38.8893 203.624C39.2739 203.484 39.6586 203.353 40.0519 203.248C42.0014 203.064 43.9334 202.881 45.8478 202.671C101.106 196.875 143.198 182.005 159.895 175.361C163.663 173.857 167.876 176.358 168.007 180.187L172.064 299.715Z" fill="#666666"/>
<path d="M147.927 294.47C172.405 303.99 153.426 296.909 162.491 304.086C166.346 307.12 172.221 304.453 172.064 299.715L168.007 180.178C167.876 176.349 163.636 173.849 159.895 175.353C150.401 179.129 167.938 175.466 144.273 181.384C121.544 201.867 106.858 214.044 126.973 238.207C134.751 247.621 140.149 258.769 142.708 270.709L147.927 294.47Z" fill="#4D4D4D"/>
<path d="M25.9602 245.287C25.9602 245.287 39.0731 254.589 63.6204 253.697C88.1677 252.805 101.368 268.873 122.445 272.449C143.522 276.024 131.362 240.453 131.362 240.453L157.587 297.442L115.731 278.078L79.6269 266.329L49.9043 259.878L39.1605 258.68L28.609 252.561L25.9864 245.27" fill="#4D4D4D"/>
<path d="M172.064 299.715C172.221 304.418 166.347 307.084 162.491 304.086C146.983 291.847 111.937 270.386 47.0979 259.406C46.2506 259.539 45.3943 259.606 44.5366 259.607C32.7 259.607 23.1101 246.844 23.1101 231.108C23.1101 217.995 29.7977 206.911 38.8893 203.624C39.2739 203.484 39.6586 203.353 40.0519 203.248C42.0014 203.064 43.9334 202.881 45.8478 202.671C101.106 196.875 143.198 182.005 159.895 175.361C163.663 173.857 167.876 176.358 168.007 180.187L172.064 299.715Z" stroke="black" stroke-width="3.82968" stroke-miterlimit="10"/>
<path d="M157.971 241.512C142.375 316.64 182.999 321.57 182.999 321.57C182.999 321.57 193.708 345.436 213.797 353.041C281.424 361.075 278.076 323.581 284.108 316.211C310.22 301.481 287.456 286.751 314.906 268C334.322 246.573 302.851 235.191 312.895 219.788C359.105 145.482 267.367 138.104 267.367 138.104C267.367 138.104 252.13 138.313 245.583 114.212C240.617 97.2088 195.885 96.728 182.326 111.983C167.867 130.262 159.212 147.772 154.431 163.866C144.071 198.694 151.808 226.808 157.971 241.529V241.512Z" fill="#666666"/>
<path d="M237.628 112.026C237.628 112.026 219.349 142.99 278.068 151.469C302.878 155.491 330.109 166.164 314.041 189.838C297.974 213.511 292.099 234.5 311.331 251.241C316.122 255.035 294.722 270.359 291.269 290.003C284.869 310.24 279.668 301.166 274.012 311.578C268.513 321.701 227.627 324.516 182.939 300.108C181.562 299.357 180.355 298.331 179.392 297.093C178.43 295.856 177.732 294.433 177.344 292.914C175.858 287.022 174.59 276.968 179.582 268.602C180.393 267.251 180.651 265.638 180.303 264.101C179.954 262.563 179.026 261.22 177.711 260.35C170.953 255.883 160.874 248.575 158.837 243.434C158.837 243.434 138.521 307.565 185.063 320.879C185.168 320.958 195.99 354.806 219.515 354.142C243.039 353.478 265.768 354.973 278.086 331.116C290.403 307.259 275.07 325.801 290.875 311.508C302.004 287.179 300.439 282.047 300.439 282.047L320.738 261.25V242.988C320.738 242.988 311.559 225.024 311.34 224.456C311.121 223.887 326.988 188.526 326.988 188.526C326.988 188.526 324.986 167.318 324.54 166.427C324.094 165.535 311.34 149.467 311.34 149.467L273.391 141.206L257.708 135.769L245.583 114.194C245.583 114.194 241.544 108.844 241.667 108.293C241.789 107.742 230.259 104.665 230.259 104.665L237.628 112.026Z" fill="#4D4D4D"/>
<path d="M157.972 241.512C142.376 316.64 183 321.57 183 321.57C183 321.57 193.709 345.436 213.797 353.041C281.425 361.075 278.077 323.581 284.109 316.211C310.221 301.481 287.457 286.751 314.907 268C334.322 246.573 302.851 235.191 312.896 219.788C359.106 145.482 267.368 138.104 267.368 138.104C267.368 138.104 252.131 138.313 245.583 114.212C240.618 97.2088 195.885 96.728 182.327 111.983C167.867 130.262 159.213 147.772 154.431 163.866C144.072 198.694 151.808 226.808 157.972 241.529V241.512Z" stroke="black" stroke-width="3.70375" stroke-miterlimit="10"/>
<path d="M199.068 292.721C199.068 292.721 170.281 316.726 195.388 339.927" stroke="black" stroke-width="3.70375" stroke-miterlimit="10"/>
<path d="M253.975 320.88C253.975 320.88 197.275 320.88 187.126 295.441C176.976 270.002 207.774 251.241 207.774 251.241" fill="#666666"/>
<path d="M253.975 320.88C253.975 320.88 197.275 320.88 187.126 295.441C176.976 270.002 207.774 251.241 207.774 251.241" stroke="black" stroke-width="3.70375" stroke-miterlimit="10"/>
<path d="M273.391 278.734C273.391 278.734 192.371 283.42 187.721 250.612C183.07 217.803 209.147 202.4 209.147 202.4" fill="#666666"/>
<path d="M273.391 278.734C273.391 278.734 192.371 283.42 187.721 250.612C183.07 217.803 209.147 202.4 209.147 202.4" stroke="black" stroke-width="3.70375" stroke-miterlimit="10"/>
<path d="M242.594 156.164C242.594 156.164 196.393 154.154 193.709 177.591C191.025 201.028 192.52 201.622 192.52 201.622C192.52 201.622 193.447 217.76 217.347 221.781C241.248 225.802 278.077 221.781 278.077 221.781" fill="#666666"/>
<path d="M242.594 156.164C242.594 156.164 196.393 154.154 193.709 177.591C191.025 201.028 192.52 201.622 192.52 201.622C192.52 201.622 193.447 217.76 217.347 221.781C241.248 225.802 278.077 221.781 278.077 221.781" stroke="black" stroke-width="3.70375" stroke-miterlimit="10"/>
<path d="M272.945 202.366C272.945 202.366 299.285 201.448 311.34 195.04Z" fill="white"/>
<path d="M272.945 202.366C285.07 197.47 298.507 196.552 311.34 195.04C302.851 203.922 284.31 205.915 272.945 202.366Z" fill="black"/>
<path d="M278.068 267.318C286.391 266.12 294.827 265.36 302.825 262.623C303.975 262.25 305.099 261.803 306.191 261.286C298.822 267.283 287.23 268.428 278.068 267.318Z" fill="black"/>
<path d="M253.974 308.823C253.974 308.823 264.692 310.833 273.39 308.823Z" fill="white"/>
<path d="M253.974 308.823C258.485 308.665 263.984 308.893 268.512 308.875C270.121 308.875 271.72 308.814 273.39 308.823C270.319 310.107 267.004 310.704 263.678 310.571C260.366 310.566 257.08 309.974 253.974 308.823V308.823Z" fill="black"/>
<path d="M176.329 256.452C163.015 250.437 155.034 238.522 150.322 225.086L154.518 223.835C157.665 237.254 164.134 249.283 176.329 256.452Z" fill="black"/>
<path d="M168.698 131.687C155.104 152.073 158.207 150.456 148.792 165.675C139.377 180.895 138.075 214.551 144.771 233.976C149.343 247.246 164.309 251.897 173.331 253.514C173.331 253.514 187.134 255.805 188.026 252.369C188.918 248.933 181.033 233.827 195.894 214.482" fill="#666666"/>
<path d="M144.963 176.9C144.963 176.9 183.882 106.965 183.358 116.345C182.483 131.407 180.307 130.629 178.585 135.096C176.862 139.564 161.564 153.524 160.052 168.919C159.711 172.223 158.303 176.673 156.336 181.158C149.238 197.619 135.461 214.552 144.972 176.892" fill="#4D4D4D"/>
<path d="M168.698 131.687C155.104 152.073 158.207 150.456 148.792 165.675C139.377 180.895 138.075 214.551 144.771 233.976C149.343 247.246 164.309 251.897 173.331 253.514C173.331 253.514 187.134 255.805 188.026 252.369C188.918 248.933 181.033 233.827 195.894 214.482" stroke="black" stroke-width="3.70375" stroke-miterlimit="10"/>
<path d="M151.695 177.328C149.946 186.166 182.877 200.18 187.126 193.02C187.126 193.02 192.467 212.785 193.805 212.541C195.142 212.296 177.58 222.725 185.937 251.285C185.937 251.285 151.773 255.297 146.502 231.336C142.315 212.348 141.694 188.439 151.695 177.328Z" fill="#4D4D4D"/>
<path d="M149.361 216.562C149.361 216.562 168.234 198.265 185.106 216.562" stroke="black" stroke-width="3.70375" stroke-miterlimit="10"/>
</svg>
