<svg width="323" height="323" viewBox="0 0 323 323" fill="none" xmlns="http://www.w3.org/2000/svg">
<g clip-path="url(#clip0_543_1660)">
<path d="M107.979 208.831C164.377 208.831 210.097 163.225 210.097 106.966C210.097 50.7076 164.377 5.10107 107.979 5.10107C51.58 5.10107 5.85986 50.7076 5.85986 106.966C5.85986 163.225 51.58 208.831 107.979 208.831Z" fill="white" stroke="white" stroke-width="4" stroke-miterlimit="10"/>
<path d="M292.561 308.163L171.322 186.925L188.135 170.153L309.374 291.391L292.561 308.163Z" fill="white" stroke="white" stroke-width="10" stroke-miterlimit="10"/>
<path d="M306.065 317.098C312.563 317.098 317.831 311.575 317.831 304.761C317.831 297.948 312.563 292.424 306.065 292.424C299.567 292.424 294.299 297.948 294.299 304.761C294.299 311.575 299.567 317.098 306.065 317.098Z" fill="white" stroke="white" stroke-width="10" stroke-miterlimit="10"/>
<path d="M107.978 202.029C160.611 202.029 203.278 159.468 203.278 106.966C203.278 54.4647 160.611 11.9036 107.978 11.9036C55.3458 11.9036 12.6787 54.4647 12.6787 106.966C12.6787 159.468 55.3458 202.029 107.978 202.029Z" fill="white" stroke="black" stroke-width="2.87069" stroke-miterlimit="10"/>
<path d="M112.558 175.754C148.963 175.754 178.475 146.315 178.475 110.001C178.475 73.6858 148.963 44.2468 112.558 44.2468C76.1524 44.2468 46.6401 73.6858 46.6401 110.001C46.6401 146.315 76.1524 175.754 112.558 175.754Z" fill="black" stroke="black" stroke-width="0.956897" stroke-miterlimit="10"/>
<path d="M105.404 163.018C141.809 163.018 171.321 133.579 171.321 97.2643C171.321 60.9495 141.809 31.5105 105.404 31.5105C68.9986 31.5105 39.4863 60.9495 39.4863 97.2643C39.4863 133.579 68.9986 163.018 105.404 163.018Z" fill="black" stroke="black" stroke-width="0.956897" stroke-miterlimit="10"/>
<path d="M130.335 137.176C165.843 116.726 182.805 79.7219 168.22 54.5247C153.636 29.3275 113.028 25.4793 77.5206 45.9294C42.0128 66.3795 25.0509 103.384 39.6352 128.581C54.2194 153.778 94.8271 157.626 130.335 137.176Z" fill="white"/>
<path d="M139.801 161.938C178.01 139.932 194.738 97.4774 177.163 67.1132C159.588 36.749 114.366 29.9736 76.1561 51.9797C37.9465 73.9859 21.2188 116.44 38.7937 146.805C56.3687 177.169 101.591 183.944 139.801 161.938Z" fill="white"/>
<path d="M298.511 309.763L171.322 182.657L183.589 170.42L310.778 297.493L298.511 309.763Z" fill="black" stroke="black" stroke-width="2.87069" stroke-miterlimit="10"/>
<path d="M306.767 314.431C311.548 314.431 315.424 310.55 315.424 305.762C315.424 300.974 311.548 297.093 306.767 297.093C301.985 297.093 298.109 300.974 298.109 305.762C298.109 310.55 301.985 314.431 306.767 314.431Z" fill="black" stroke="black" stroke-width="2.87069" stroke-miterlimit="10"/>
<path d="M311.138 294.756L295.227 309.515L298.255 312.763L314.166 298.003L311.138 294.756Z" fill="white"/>
<path d="M189.663 173.079L173.898 188.805L177.041 191.94L192.807 176.214L189.663 173.079Z" fill="white"/>
<path d="M212.47 202.029C225.072 213.299 238.209 225.836 251.546 239.741C263.513 252.211 274.377 264.482 284.238 276.285L212.47 202.029Z" fill="white"/>
</g>
<defs>
<clipPath id="clip0_543_1660">
<rect width="322" height="322" fill="white" transform="translate(0.845459 0.100098)"/>
</clipPath>
</defs>
</svg>
